<?xml version="1.0" encoding="UTF-8" standalone="no"?>
<!-- Created with Inkscape (http://www.inkscape.org/) -->

<svg
   width="298.12372mm"
   height="97.02977mm"
   viewBox="0 0 298.12372 97.02977"
   version="1.1"
   id="svg1"
   xml:space="preserve"
   xmlns:inkscape="http://www.inkscape.org/namespaces/inkscape"
   xmlns:sodipodi="http://sodipodi.sourceforge.net/DTD/sodipodi-0.dtd"
   xmlns:xlink="http://www.w3.org/1999/xlink"
   xmlns="http://www.w3.org/2000/svg"
   xmlns:svg="http://www.w3.org/2000/svg"><sodipodi:namedview
     id="namedview1"
     pagecolor="#ffffff"
     bordercolor="#000000"
     borderopacity="0.25"
     inkscape:showpageshadow="2"
     inkscape:pageopacity="0.0"
     inkscape:pagecheckerboard="0"
     inkscape:deskcolor="#d1d1d1"
     inkscape:document-units="mm" /><defs
     id="defs1"><linearGradient
       id="linearGradient1"
       inkscape:collect="always"><stop
         style="stop-color:#1eeaf7;stop-opacity:1;"
         offset="0"
         id="stop1" /><stop
         style="stop-color:#0086cc;stop-opacity:1;"
         offset="1"
         id="stop2" /></linearGradient><linearGradient
       inkscape:collect="always"
       xlink:href="#linearGradient1"
       id="linearGradient2"
       x1="-423.77213"
       y1="497.30197"
       x2="455.13208"
       y2="1069.4388"
       gradientUnits="userSpaceOnUse"
       gradientTransform="matrix(0.40656308,0,0,0.40656308,67.823978,147.67631)" /></defs><g
     inkscape:label="Capa 1"
     inkscape:groupmode="layer"
     id="layer1"
     transform="translate(107.54298,-346.61925)"><path
       style="fill:url(#linearGradient2);stroke-width:0.406563"
       d="m -60.193964,443.57904 c -0.236661,-0.0465 -0.566546,-0.14011 -0.733115,-0.208 -0.166528,-0.0679 -0.439617,-0.12343 -0.606755,-0.12343 -0.167178,0 -0.514993,-0.0958 -0.772917,-0.21277 -0.257883,-0.11703 -0.574961,-0.21384 -0.704574,-0.21515 -0.129612,-10e-4 -0.647045,-0.19598 -1.149801,-0.43264 -0.502796,-0.23665 -0.968392,-0.43028 -1.034743,-0.43028 -0.06631,0 -0.342448,-0.16942 -0.613667,-0.37649 -0.271177,-0.20707 -0.531337,-0.37649 -0.578132,-0.37649 -0.129491,0 -1.692319,-1.2477 -2.341682,-1.86951 -0.316387,-0.30295 -0.828291,-0.88981 -1.137522,-1.30415 -0.309273,-0.41433 -0.645419,-0.83645 -0.746979,-0.93803 -0.1016,-0.10158 -0.235847,-0.33136 -0.298336,-0.51061 -0.06249,-0.17926 -0.153925,-0.32591 -0.203241,-0.32591 -0.04932,0 -0.316021,-0.47197 -0.592728,-1.04881 -0.276666,-0.57685 -0.56866,-1.17425 -0.648834,-1.32756 -0.08013,-0.15331 -0.178888,-0.49215 -0.219381,-0.75299 -0.04066,-0.26083 -0.139167,-0.56972 -0.219138,-0.68642 -0.08001,-0.1167 -0.147623,-0.38293 -0.150225,-0.59163 -0.0041,-0.2087 -0.08143,-0.57308 -0.175188,-0.80973 -0.256419,-0.64729 -0.333016,-3.8893 -0.106276,-4.50043 0.09136,-0.24628 0.197265,-0.68982 0.2354,-0.98563 0.03822,-0.29582 0.134776,-0.73148 0.214869,-0.96813 0.08005,-0.23666 0.175066,-0.65625 0.211169,-0.93244 0.03618,-0.27619 0.135833,-0.56045 0.221658,-0.6317 0.08587,-0.0712 0.15608,-0.17826 0.15608,-0.23782 0,-0.16004 0.970222,-2.11293 1.084954,-2.18384 0.284716,-0.17596 -0.08152,-0.61859 -2.228779,-2.69364 -3.080854,-2.97729 -3.005477,-2.90601 -3.85747,-3.64726 -0.874924,-0.76122 -2.930751,-2.73915 -4.417715,-4.25038 -0.743482,-0.75558 -1.132075,-1.07433 -1.309702,-1.07433 -0.138923,0 -0.506374,0.18153 -0.816541,0.40339 -0.310167,0.22186 -0.639727,0.45179 -0.732302,0.51096 -0.09257,0.0592 -0.357125,0.23218 -0.587809,0.38447 -0.230724,0.1523 -0.637328,0.39359 -0.903545,0.53621 -0.266259,0.14261 -0.599518,0.34474 -0.740636,0.44918 -0.141078,0.10445 -0.359605,0.1899 -0.48564,0.1899 -0.125994,0 -0.409734,0.0968 -0.630539,0.21514 -0.220763,0.11833 -0.463929,0.21514 -0.540403,0.21514 -0.07643,0 -0.328869,0.0968 -0.560976,0.21514 -0.269023,0.13715 -0.637938,0.2159 -1.017749,0.21725 -0.32769,0.001 -0.983029,0.0706 -1.45635,0.15436 -0.634686,0.11228 -1.07231,0.1265 -1.667315,0.0542 -0.443723,-0.0539 -1.391178,-0.14428 -2.105428,-0.20077 -1.251604,-0.099 -1.635684,-0.1996 -2.541385,-0.66571 -0.218812,-0.11259 -0.494299,-0.20472 -0.612203,-0.20472 -0.117903,0 -0.242514,-0.0456 -0.27691,-0.10124 -0.03456,-0.0557 -0.412417,-0.27572 -0.84004,-0.48898 -0.949085,-0.47336 -1.768105,-0.98171 -2.307855,-1.43249 -1.67228,-1.39652 -2.03908,-1.73633 -2.18499,-2.02417 -0.0911,-0.17966 -0.32111,-0.49226 -0.51122,-0.69467 -0.1901,-0.20241 -0.37562,-0.46483 -0.41229,-0.58316 -0.0366,-0.11833 -0.23012,-0.41691 -0.42998,-0.66352 -0.19987,-0.24661 -0.36339,-0.54322 -0.36339,-0.65914 0,-0.11592 -0.0707,-0.26947 -0.15718,-0.34122 -0.0865,-0.0718 -0.18901,-0.23499 -0.22787,-0.36277 -0.039,-0.12777 -0.14381,-0.31564 -0.23317,-0.41748 -0.0894,-0.10184 -0.20035,-0.36807 -0.24662,-0.59163 -0.0462,-0.22356 -0.21426,-0.74532 -0.37331,-1.15946 -0.15908,-0.41414 -0.33504,-1.06763 -0.39103,-1.45219 -0.056,-0.38457 -0.1525,-1.01385 -0.21446,-1.39841 -0.17986,-1.11555 0.0975,-4.93854 0.38225,-5.26828 0.0779,-0.0902 0.17181,-0.39716 0.20877,-0.68213 0.037,-0.28497 0.14031,-0.62248 0.22963,-0.75003 0.0894,-0.12755 0.16242,-0.35558 0.16242,-0.50674 0,-0.15116 0.0799,-0.38887 0.1775,-0.52825 0.25862,-0.3692 0.68307,-1.18631 0.68307,-1.31492 0,-0.0609 0.16942,-0.31742 0.37652,-0.57013 0.20706,-0.2527 0.37648,-0.51208 0.37648,-0.57639 0,-0.0643 0.48726,-0.67365 1.08284,-1.35408 1.03198,-1.17906 1.94109,-1.99697 3.00482,-2.70332 0.26622,-0.17679 0.54801,-0.38195 0.62619,-0.4559 0.0782,-0.074 0.229589,-0.13447 0.336434,-0.13447 0.106844,0 0.251987,-0.0695 0.322485,-0.15443 0.07046,-0.0849 0.266665,-0.18487 0.435999,-0.22206 0.169333,-0.0372 0.36554,-0.13711 0.435998,-0.22205 0.0705,-0.0849 0.232513,-0.15444 0.360011,-0.15444 0.127499,0 0.338789,-0.0749 0.4695,-0.16649 0.13075,-0.0916 0.54085,-0.21968 0.911392,-0.2847 0.370542,-0.065 0.789302,-0.19368 0.930582,-0.28591 0.373306,-0.24366 5.496936,-0.23983 5.982169,0.004 0.177506,0.0894 0.666845,0.21748 1.087435,0.28471 0.420589,0.0672 0.904643,0.19521 1.075684,0.28441 0.171041,0.0892 0.388471,0.16247 0.4832,0.16284 0.09473,3.6e-4 0.409369,0.12912 0.699208,0.28612 0.289838,0.157 0.672211,0.35985 0.849676,0.45077 0.177505,0.0909 0.384771,0.2268 0.460636,0.30195 0.07586,0.0752 0.306955,0.16835 0.51353,0.2071 l 0.375582,0.0705 5.035731,-5.05087 c 2.76963,-2.77797 5.302721,-5.2281 5.62911,-5.44472 0.520076,-0.34521 0.674163,-0.39386 1.247539,-0.39386 0.842521,0 1.051413,0.0864 1.660769,0.68716 0.467304,0.46071 1.158787,1.36466 1.158787,1.51486 0,0.0361 0.103348,0.20539 0.229586,0.37618 0.5154,0.69711 0.03944,1.83675 -1.295473,3.10099 -0.954366,0.90392 -4.151781,4.08078 -6.81359,6.76977 -2.633797,2.66071 -2.692749,2.74879 -2.232072,3.33445 0.11835,0.15043 0.215153,0.33366 0.215153,0.40718 0,0.0735 0.06753,0.18974 0.150103,0.25825 0.08253,0.0685 0.180676,0.2876 0.21804,0.48685 0.0374,0.19925 0.139288,0.38963 0.226415,0.42307 0.08713,0.0334 0.158722,0.17123 0.159128,0.3062 4.07e-4,0.13498 0.09688,0.39063 0.214422,0.56812 0.117578,0.17749 0.214055,0.45054 0.214462,0.60678 3.66e-4,0.15624 0.09644,0.49509 0.213486,0.75299 0.117009,0.25791 0.213812,0.62033 0.215113,0.80538 0,0.18506 0.08359,0.5239 0.182831,0.75299 0.235441,0.54352 0.282155,4.20597 0.05708,4.47717 -0.07615,0.0918 -0.187141,0.46918 -0.246661,0.83869 -0.05952,0.36951 -0.178604,0.77237 -0.264673,0.89525 -0.08607,0.12288 -0.156486,0.38057 -0.156486,0.57266 0,0.19208 -0.09371,0.53226 -0.208242,0.75594 -0.114569,0.22369 -0.239506,0.58053 -0.277682,0.79298 -0.06517,0.36237 -0.02724,0.4316 0.611633,1.11848 1.181595,1.27028 5.78088,5.78609 9.435841,9.26455 2.338876,2.22591 2.309197,2.21033 3.220102,1.69059 0.276788,-0.15792 0.575815,-0.34541 0.664568,-0.41666 0.08875,-0.0712 0.338016,-0.16114 0.553942,-0.19978 0.215926,-0.0386 0.451773,-0.14159 0.524141,-0.22877 0.07233,-0.0872 0.224911,-0.1585 0.339074,-0.1585 0.114163,0 0.38656,-0.0935 0.605372,-0.20778 0.218772,-0.11427 0.760842,-0.26002 1.204565,-0.32389 0.443723,-0.0639 1.121423,-0.16799 1.505991,-0.23138 0.396562,-0.0654 1.560552,-0.0972 2.689252,-0.0735 1.612795,0.0339 2.051192,0.0762 2.312734,0.22335 0.177506,0.0999 0.480192,0.18186 0.6727,0.18223 0.192507,3.6e-4 0.530646,0.0975 0.75141,0.2158 0.220763,0.11833 0.505114,0.21514 0.631839,0.21514 0.126767,0 0.290734,0.0726 0.364362,0.16135 0.07367,0.0888 0.189215,0.16136 0.256826,0.16136 0.06757,0 0.303499,0.0968 0.524263,0.21514 0.220764,0.11832 0.531703,0.21513 0.690954,0.21513 0.396562,0 0.975426,-0.41732 1.109348,-0.79978 0.06082,-0.17365 0.194662,-0.40869 0.297442,-0.52231 0.156892,-0.17341 0.186897,-0.42636 0.186775,-1.57548 l -1.22e-4,-1.36889 -0.480355,-0.9594 c -0.449618,-0.89805 -0.615495,-1.09353 -2.59375,-3.05701 -1.162405,-1.15369 -2.543581,-2.51316 -3.069348,-3.02105 -1.7779,-1.71755 -3.506444,-3.72142 -3.889304,-4.50884 -0.07192,-0.14791 -0.176896,-0.34153 -0.233286,-0.43028 -0.434494,-0.68399 -0.974735,-1.74068 -0.974735,-1.90661 0,-0.11097 -0.04732,-0.24909 -0.105219,-0.30695 -0.20755,-0.20758 -0.564025,-1.40788 -0.700305,-2.35815 -0.07635,-0.53247 -0.192589,-1.13723 -0.258289,-1.34392 -0.08318,-0.26171 -0.119448,-2.84436 -0.119448,-8.50823 0,-7.60885 -0.0122,-8.14337 -0.188239,-8.3021 -0.103552,-0.0933 -0.333463,-0.20083 -0.510969,-0.23895 -0.430916,-0.0925 -2.004274,-0.73972 -2.527887,-1.03981 -0.08875,-0.0509 -0.282358,-0.15178 -0.430306,-0.22426 -0.147908,-0.0725 -0.535159,-0.3141 -0.860532,-0.53693 -0.325413,-0.22283 -0.646963,-0.4052 -0.714575,-0.40528 -0.06765,-8e-5 -0.150835,-0.0728 -0.184905,-0.1615 -0.03415,-0.0887 -0.127254,-0.16135 -0.207184,-0.16135 -0.07989,0 -0.553373,-0.42543 -1.052145,-0.94539 -1.260833,-1.31432 -1.500868,-1.59839 -1.973335,-2.33549 -0.227513,-0.35498 -0.52841,-0.81744 -0.668674,-1.0277 -0.140224,-0.21025 -0.254956,-0.46885 -0.254956,-0.57466 0,-0.10582 -0.09684,-0.31547 -0.215153,-0.4659 -0.11831,-0.15043 -0.215153,-0.33976 -0.215153,-0.42074 0,-0.081 -0.0968,-0.32787 -0.215113,-0.54864 -0.11835,-0.22078 -0.215153,-0.52932 -0.215153,-0.68565 0,-0.15633 -0.07261,-0.3445 -0.161365,-0.41815 -0.08875,-0.0737 -0.161365,-0.25021 -0.161365,-0.39235 0,-0.14215 -0.0968,-0.53389 -0.215112,-0.87055 -0.190922,-0.54314 -0.215154,-0.88787 -0.215154,-3.0593 0,-1.83581 0.03862,-2.56233 0.153885,-2.90811 0.0846,-0.25351 0.188726,-0.65456 0.231375,-0.89121 0.04261,-0.23666 0.139207,-0.52709 0.214665,-0.64542 0.07542,-0.11832 0.172383,-0.40755 0.215397,-0.64272 0.04305,-0.23517 0.143435,-0.49276 0.223122,-0.57243 0.07965,-0.0797 0.145143,-0.22609 0.145549,-0.3254 3.66e-4,-0.0993 0.09688,-0.32578 0.214422,-0.50328 0.117537,-0.17749 0.214055,-0.39991 0.214421,-0.49428 4.07e-4,-0.0944 0.09754,-0.25919 0.215844,-0.36627 0.118351,-0.10709 0.215154,-0.24007 0.215154,-0.29553 0,-0.0554 0.0968,-0.2239 0.215153,-0.37433 0.11831,-0.15042 0.215112,-0.34339 0.215112,-0.42881 0,-0.33061 1.801969,-2.30617 3.068332,-3.36395 0.394,-0.32911 1.515586,-1.08367 1.879907,-1.26472 0.147908,-0.0735 0.341513,-0.17416 0.430266,-0.22365 0.622326,-0.34712 1.090077,-0.55699 1.241399,-0.55699 0.09729,0 0.299922,-0.0968 0.45035,-0.21514 0.150429,-0.11832 0.366192,-0.21514 0.479501,-0.21514 0.113268,0 0.341228,-0.0699 0.506496,-0.15541 0.165309,-0.0855 0.562277,-0.18645 0.88212,-0.22437 0.319884,-0.0379 0.81463,-0.14233 1.099428,-0.23202 0.654688,-0.20615 4.64421,-0.23579 5.015159,-0.0373 0.128514,0.0688 0.528532,0.17255 0.888909,0.23058 0.360378,0.058 0.75576,0.17594 0.878624,0.262 0.122904,0.0861 0.347652,0.15649 0.499462,0.15649 0.151811,0 0.465922,0.0968 0.697988,0.21514 0.232107,0.11832 0.4869,0.21514 0.56618,0.21514 0.123635,0 0.621309,0.22933 1.208752,0.55698 0.08871,0.0495 0.282358,0.14795 0.430266,0.21878 0.147908,0.0708 0.355051,0.21521 0.460351,0.32085 0.1053,0.10563 0.466531,0.39828 0.802759,0.65031 0.763444,0.57231 1.34178,1.13526 2.017854,1.96423 0.289514,0.35499 0.682172,0.81485 0.872606,1.02192 0.190475,0.20707 0.550405,0.76374 0.799873,1.23705 0.249507,0.47331 0.51979,0.93698 0.600696,1.03039 0.08087,0.0934 0.148559,0.21441 0.150429,0.26892 0,0.0545 0.122416,0.34113 0.267925,0.63695 0.145509,0.29582 0.265038,0.63708 0.265567,0.75836 0,0.12129 0.05216,0.27168 0.114691,0.33422 0.06253,0.0625 0.185678,0.39895 0.273699,0.74761 0.08802,0.34865 0.206046,0.80334 0.262314,1.01041 0.05631,0.20707 0.10404,1.69721 0.106113,3.31141 0.0041,2.34576 -0.02765,3.00437 -0.152868,3.28088 -0.08615,0.19028 -0.189702,0.50977 -0.230155,0.70998 -0.04066,0.20021 -0.164008,0.56326 -0.274593,0.80677 -0.110585,0.24352 -0.202102,0.59722 -0.203403,0.78601 0,0.18879 -0.05151,0.37363 -0.111561,0.41075 -0.06009,0.0371 -0.182384,0.2215 -0.271828,0.40973 -0.234099,0.49276 -0.419695,0.79701 -0.623546,1.02229 -0.09831,0.1086 -0.178725,0.24981 -0.178725,0.31379 0,0.10742 -0.649566,0.98083 -1.060723,1.42621 -0.09697,0.10505 -0.369932,0.42265 -0.606592,0.70578 -0.236661,0.28313 -0.495397,0.56696 -0.575002,0.63074 -0.07961,0.0638 -0.375055,0.32168 -0.656559,0.57312 -0.281545,0.25144 -0.561423,0.45717 -0.622001,0.45717 -0.06058,0 -0.169456,0.0715 -0.241905,0.15878 -0.213161,0.25683 -1.899463,1.34522 -2.284112,1.47424 -0.194419,0.0652 -0.4299,0.18432 -0.523328,0.26468 -0.09339,0.0804 -0.238612,0.14645 -0.322689,0.14684 -0.08412,3.9e-4 -0.298133,0.0969 -0.475598,0.21443 -0.177505,0.11754 -0.482427,0.21404 -0.677659,0.21443 -0.195232,3.9e-4 -0.48568,0.0676 -0.645419,0.14934 -0.159779,0.0818 -0.496373,0.18284 -0.747995,0.22466 -0.344806,0.0573 -0.471816,0.13329 -0.515644,0.30853 -0.03212,0.12789 -0.04395,3.8872 -0.02643,8.35404 0.02846,7.2933 0.04948,8.14895 0.207022,8.39045 0.09648,0.14791 0.203525,0.52654 0.23788,0.8414 0.05537,0.50775 0.237351,0.96801 0.783487,1.98186 0.08753,0.16245 0.302036,0.45185 0.476736,0.6431 0.17466,0.19126 0.348181,0.44559 0.385544,0.56519 0.126157,0.40365 1.732853,2.16262 4.66401,5.10602 1.035354,1.03968 2.098923,2.15612 2.363474,2.48097 0.26455,0.32485 0.63623,0.75508 0.825973,0.95608 0.189743,0.20099 0.374282,0.48214 0.4101,0.62477 0.03578,0.14264 0.23288,0.49806 0.43795,0.78983 0.20507,0.29177 0.372859,0.61642 0.372859,0.72144 0,0.10502 0.09684,0.37158 0.215153,0.59235 0.118351,0.22077 0.215316,0.48629 0.21556,0.59004 2.03e-4,0.10375 0.09701,0.34713 0.215112,0.54084 0.199338,0.32692 0.214747,0.5432 0.214747,3.01355 0,2.45583 -0.01667,2.69234 -0.215153,3.06275 -0.11831,0.22077 -0.215113,0.52277 -0.215113,0.6711 0,0.14834 -0.0968,0.45034 -0.215153,0.67111 -0.11831,0.22077 -0.215153,0.48558 -0.215153,0.58847 0,0.10288 -0.165756,0.51506 -0.368346,0.91594 -0.580735,1.1491 -0.654933,2.05647 -0.214503,2.62304 0.186328,0.2397 0.582849,1.05835 0.582849,1.20336 0,0.073 0.09684,0.31338 0.215153,0.53415 0.118351,0.22077 0.215153,0.49857 0.215153,0.61733 0,0.11875 0.0968,0.39655 0.215113,0.61732 0.156039,0.29108 0.215519,0.60879 0.216454,1.15598 0,0.41503 0.07273,1.02082 0.160064,1.34622 0.08733,0.3254 0.158803,0.95468 0.158803,1.39841 0,0.44372 -0.07147,1.07301 -0.158803,1.39841 -0.08733,0.3254 -0.158682,0.88207 -0.158519,1.23705 2.85e-4,0.651 -0.286912,1.77839 -0.660665,2.59346 -0.11152,0.24313 -0.202753,0.51891 -0.202753,0.61283 0,0.17802 -0.473727,1.12852 -0.651029,1.30626 -0.05607,0.0562 -0.101926,0.18498 -0.101926,0.28616 0,0.10118 -0.193646,0.42892 -0.430306,0.72831 -0.236661,0.29939 -0.430266,0.5732 -0.430266,0.60847 0,0.0353 -0.133109,0.24238 -0.295815,0.46024 -0.162707,0.21786 -0.344237,0.46117 -0.403392,0.54069 -0.509098,0.68423 -2.972789,2.97293 -3.489531,3.24169 -0.173155,0.0901 -0.543941,0.29795 -0.824022,0.462 -0.280041,0.16405 -0.616878,0.3253 -0.748523,0.35834 -0.255932,0.0642 -1.174602,0.51122 -1.377395,0.67017 -0.06725,0.0527 -0.364321,0.12312 -0.660137,0.15646 -0.295815,0.0333 -0.683066,0.13651 -0.860572,0.22926 -0.177465,0.0928 -0.481574,0.16895 -0.675748,0.16931 -0.194175,3.6e-4 -0.533045,0.0798 -0.752996,0.17655 -0.450187,0.19799 -3.185665,0.30571 -3.949719,0.15554 z m 3.334671,-6.58114 c 0.236619,-0.0622 0.653103,-0.16997 0.925459,-0.23947 0.272357,-0.0695 0.563049,-0.18298 0.646029,-0.25218 0.08294,-0.0692 0.295774,-0.16041 0.472914,-0.20269 0.17718,-0.0423 0.394732,-0.13734 0.483485,-0.21124 0.08871,-0.0739 0.427582,-0.28426 0.752955,-0.46747 0.325413,-0.18322 0.824062,-0.58822 1.108169,-0.90001 1.140775,-1.25206 1.36597,-1.53295 1.36597,-1.70399 0,-0.0982 0.08595,-0.29394 0.190963,-0.43504 0.375868,-0.50488 0.66965,-1.25563 0.673228,-1.72051 0,-0.25975 0.09717,-0.6659 0.211494,-0.90256 0.293091,-0.60677 0.293091,-2.04464 0,-2.87853 -0.11831,-0.33667 -0.215153,-0.81375 -0.215153,-1.06019 0,-0.38943 -0.236376,-1.07438 -0.552601,-1.60113 -0.05326,-0.0887 -0.156608,-0.28237 -0.229667,-0.43027 -0.272804,-0.5523 -0.578662,-0.93585 -1.372598,-1.72112 -0.941803,-0.93159 -1.209769,-1.12924 -2.094125,-1.54465 -0.35497,-0.16676 -0.742222,-0.35614 -0.860572,-0.42086 -0.11831,-0.0647 -0.408759,-0.15298 -0.645419,-0.19611 -0.23666,-0.0431 -0.648102,-0.1604 -0.91432,-0.26058 -0.901187,-0.33909 -3.80543,-0.0306 -4.456907,0.47347 -0.06314,0.0489 -0.273901,0.14235 -0.46832,0.20777 -0.914238,0.30761 -3.120087,2.11675 -3.348535,2.74633 -0.02439,0.0677 -0.196817,0.34111 -0.382779,0.60764 -0.327568,0.46942 -0.530036,0.86254 -1.025108,1.99058 -0.215763,0.49162 -0.236945,0.72275 -0.246662,2.68924 -0.0089,1.81519 0.01667,2.19343 0.164049,2.42032 0.09603,0.14791 0.207469,0.44873 0.247596,0.66848 0.04025,0.21976 0.140549,0.45562 0.223122,0.52413 0.08253,0.0685 0.150103,0.18543 0.150103,0.25981 0,0.0744 0.217837,0.41577 0.484054,0.75862 0.266258,0.34286 0.484054,0.66017 0.484054,0.70514 0,0.045 0.257517,0.33904 0.572197,0.6535 0.698598,0.69808 1.9848,1.57513 2.525123,1.7219 0.2193,0.0596 0.47515,0.17609 0.568538,0.25896 0.09339,0.0829 0.262843,0.15194 0.376477,0.15349 0.113675,0.002 0.545526,0.0955 0.959692,0.20867 0.848091,0.23184 2.528416,0.2842 3.227095,0.10055 z m -34.528183,-31.13011 c 0.235685,-0.0839 0.670585,-0.15504 0.966401,-0.15803 0.349197,-0.004 0.650988,-0.0804 0.860531,-0.21915 0.177505,-0.11755 0.387699,-0.21404 0.4671,-0.21443 0.0794,-3.9e-4 0.267478,-0.0975 0.417907,-0.21585 0.150428,-0.11833 0.361434,-0.21514 0.468889,-0.21514 0.107495,0 0.745962,-0.54457 1.418824,-1.21016 1.14232,-1.12999 1.799001,-2.01947 1.799001,-2.43683 0,-0.0977 0.08473,-0.29734 0.188238,-0.44362 0.383796,-0.54223 0.497471,-1.26935 0.495601,-3.17035 0,-1.8852 -0.172058,-3.02836 -0.526093,-3.53381 -0.08676,-0.12387 -0.157868,-0.32337 -0.158031,-0.44332 0,-0.41863 -1.03389,-1.82274 -2.002974,-2.72167 -1.043647,-0.9681 -1.921986,-1.47044 -3.342965,-1.91185 -0.695019,-0.2159 -1.060601,-0.2601 -2.129862,-0.25753 -0.83878,0.002 -1.44155,0.0569 -1.721144,0.15677 -0.236619,0.0845 -0.648102,0.18512 -0.914319,0.22357 -0.266259,0.0385 -0.556667,0.13089 -0.645419,0.20539 -0.08875,0.0745 -0.282358,0.17113 -0.430307,0.21471 -0.147907,0.0436 -0.341513,0.14028 -0.430265,0.21489 -0.08875,0.0746 -0.312403,0.2121 -0.496983,0.30553 -0.599193,0.30326 -1.420369,1.16494 -2.677096,2.80923 -0.08831,0.11557 -0.160592,0.27754 -0.160592,0.35993 0,0.0824 -0.178766,0.5203 -0.397256,0.97314 l -0.39729,0.82334 -0.0449,2.28104 c -0.0424,2.15153 -0.0321,2.30766 0.18214,2.7501 0.1249,0.25798 0.22706,0.54406 0.22706,0.63573 0,0.0917 0.0968,0.28975 0.21516,0.44018 0.11831,0.15042 0.215111,0.36725 0.215111,0.48184 0,0.11458 0.124855,0.34898 0.277438,0.52088 0.152583,0.1719 0.388675,0.48368 0.524629,0.69284 0.456408,0.70215 1.897796,2.04003 2.19788,2.04003 0.05733,0 0.168195,0.0612 0.246377,0.13602 0.294515,0.28184 1.305312,0.72454 1.654265,0.72454 0.199582,0 0.570245,0.069 0.823737,0.15328 0.253533,0.0843 0.581955,0.17703 0.729862,0.20606 0.424534,0.0833 1.629261,-0.0299 2.09937,-0.1973 z m 34.636654,-35.64377 c 0.473808,-0.0572 1.030474,-0.188 1.237049,-0.29059 0.206575,-0.10259 0.554593,-0.27647 0.773405,-0.3864 0.218772,-0.10993 0.446284,-0.19988 0.505561,-0.19988 0.335903,0 1.857912,-1.30741 2.254067,-1.93626 0.09318,-0.14791 0.328503,-0.46753 0.522922,-0.71028 0.194418,-0.24275 0.353506,-0.50239 0.353506,-0.57699 0,-0.0746 0.08981,-0.31164 0.199623,-0.52677 0.444089,-0.87014 0.660909,-1.43417 0.660909,-1.71911 0,-0.16517 0.077,-0.55958 0.171122,-0.87646 0.283496,-0.95466 0.0041,-3.81024 -0.434657,-4.4361 -0.09172,-0.13091 -0.166731,-0.32658 -0.166731,-0.43481 0,-0.22461 -0.398025,-0.98823 -0.659323,-1.26491 -0.0964,-0.10207 -0.367899,-0.44555 -0.603381,-0.7633 -0.589638,-0.79571 -1.240017,-1.44604 -1.662965,-1.66277 -0.195353,-0.10012 -0.379404,-0.21873 -0.409002,-0.26358 -0.09123,-0.13835 -1.097476,-0.64142 -1.28291,-0.64142 -0.09635,0 -0.27069,-0.0665 -0.387373,-0.14777 -0.24719,-0.17216 -1.799082,-0.43052 -2.578708,-0.42932 -0.975019,0.002 -2.873059,0.25789 -3.103336,0.4192 -0.124002,0.0868 -0.299353,0.1587 -0.389732,0.15969 -0.376274,0.004 -1.905845,0.94797 -2.654287,1.63786 -0.596103,0.54945 -1.501763,1.89198 -1.6515,2.44816 -0.06237,0.23156 -0.160471,0.45013 -0.21804,0.4857 -0.05753,0.0356 -0.104649,0.17145 -0.104649,0.30195 0,0.1305 -0.10217,0.42797 -0.227107,0.66102 -0.205517,0.38349 -0.228203,0.60816 -0.238774,2.36495 -0.01057,1.79545 0.0061,1.97912 0.227106,2.44625 0.13132,0.27778 0.238775,0.58924 0.238775,0.69213 0,0.1642 0.312484,0.94353 0.518571,1.29338 0.72047,1.22298 1.892917,2.49677 2.927295,3.18032 1.22038,0.80649 1.794081,1.03696 2.88367,1.15845 0.564635,0.063 1.053649,0.14202 1.086621,0.17568 0.06367,0.065 0.803125,0.0122 2.212273,-0.15802 z M 100.40776,432.3763 c -0.709961,-0.048 -1.581271,-0.1346 -1.936261,-0.19251 -0.35497,-0.0579 -1.08107,-0.11091 -1.61354,-0.11778 -0.6555,-0.008 -1.03361,-0.0621 -1.17091,-0.16602 -0.11152,-0.0844 -0.42616,-0.18279 -0.6992,-0.21857 -0.27303,-0.0358 -0.66585,-0.13119 -0.87292,-0.21204 -0.20708,-0.0808 -0.6384,-0.17727 -0.95851,-0.21429 -0.3201,-0.037 -0.68182,-0.1372 -0.80381,-0.22265 -0.122,-0.0854 -0.34487,-0.15536 -0.49529,-0.15536 -0.15041,0 -0.4541,-0.0968 -0.67487,-0.21514 -0.22078,-0.11832 -0.52706,-0.21513 -0.68065,-0.21513 -0.15358,0 -0.40232,-0.0968 -0.55274,-0.21515 -0.15043,-0.11832 -0.33977,-0.21514 -0.42075,-0.21514 -0.081,0 -0.32787,-0.0968 -0.54864,-0.21513 -0.22077,-0.11833 -0.49512,-0.21514 -0.60967,-0.21514 -0.11454,0 -0.28468,-0.0665 -0.37808,-0.1477 -0.0934,-0.0812 -0.60548,-0.37541 -1.13796,-0.65372 -0.53247,-0.27831 -1.044551,-0.57489 -1.137951,-0.65907 -0.0934,-0.0842 -0.21778,-0.15306 -0.27639,-0.15306 -0.0586,0 -0.36608,-0.19363 -0.68327,-0.43028 -0.31718,-0.23666 -0.62981,-0.43028 -0.69472,-0.43028 -0.0649,0 -0.1997,-0.0847 -0.29953,-0.18825 -0.36877,-0.38245 -0.57078,-0.53914 -0.78065,-0.60551 -0.11833,-0.0374 -0.4118,-0.24928 -0.65216,-0.4708 -0.24035,-0.22153 -0.67356,-0.5964 -0.96269,-0.83305 -0.9025,-0.73872 -2.43592,-2.32072 -3.38866,-3.49602 -0.26377,-0.3254 -0.50931,-0.61584 -0.54564,-0.64542 -0.0363,-0.0296 -0.12841,-0.1748 -0.20462,-0.32271 -0.13854,-0.26887 -0.31955,-0.49312 -0.67352,-0.83443 -0.10354,-0.0998 -0.18825,-0.23683 -0.18825,-0.30445 0,-0.0676 -0.0912,-0.23891 -0.20271,-0.38065 -0.45683,-0.58075 -1.46265,-2.5727 -2.0572,-4.0741 -0.12885,-0.3254 -0.28469,-0.71265 -0.34629,-0.86056 -0.29227,-0.70171 -0.72847,-2.0087 -0.72847,-2.18275 0,-0.10695 -0.0777,-0.34472 -0.17266,-0.52836 -0.1709,-0.33049 -0.39016,-1.37203 -0.59549,-2.82873 -0.0584,-0.41415 -0.17332,-0.99503 -0.25544,-1.29084 -0.51182,-1.84363 -0.51262,-10.30162 -0.001,-11.99403 0.0805,-0.26624 0.1781,-0.6777 0.21698,-0.91435 0.0389,-0.23665 0.13273,-0.52709 0.20858,-0.64542 0.0758,-0.11832 0.17299,-0.49693 0.21588,-0.84135 0.0429,-0.34442 0.14668,-0.79062 0.23064,-0.99157 0.084,-0.20094 0.15265,-0.47653 0.15265,-0.61243 0,-0.13589 0.0968,-0.42771 0.21515,-0.64848 0.11832,-0.22077 0.21514,-0.53376 0.21514,-0.69553 0,-0.2896 0.26249,-1.05624 0.65865,-1.92362 0.11105,-0.24313 0.2019,-0.51554 0.2019,-0.60535 0,-0.0898 0.0695,-0.22098 0.15444,-0.29147 0.0849,-0.0705 0.18548,-0.2695 0.22342,-0.44222 0.0379,-0.17272 0.11069,-0.33982 0.16168,-0.37133 0.051,-0.0315 0.25063,-0.33461 0.44365,-0.67355 0.19303,-0.33894 0.41383,-0.68022 0.49066,-0.7584 0.0768,-0.0782 0.1397,-0.18522 0.1397,-0.23787 0,-0.14242 1.14745,-1.80632 1.62957,-2.36301 1.38261,-1.5965 1.85925,-2.08176 2.75241,-2.8022 0.54643,-0.44076 0.99419,-0.83299 0.99502,-0.87161 8.1e-4,-0.0386 0.25563,-0.23942 0.56623,-0.44624 0.31061,-0.20681 0.75837,-0.5263 0.99502,-0.70997 0.23666,-0.18368 0.52484,-0.40643 0.64041,-0.49501 0.11557,-0.0886 0.25264,-0.16103 0.30461,-0.16103 0.052,0 0.30123,-0.16943 0.55393,-0.3765 0.25271,-0.20707 0.50833,-0.37649 0.56806,-0.37649 0.0597,0 0.29677,-0.15004 0.52677,-0.33341 0.23,-0.18337 0.587601,-0.42721 0.794671,-0.54187 0.20707,-0.11465 0.57012,-0.32517 0.80678,-0.46783 0.23665,-0.14265 0.55129,-0.31024 0.6992,-0.37241 0.14791,-0.0622 0.34153,-0.16178 0.43028,-0.22136 0.0887,-0.0596 0.23396,-0.13533 0.32271,-0.16834 0.22444,-0.0835 1.09556,-0.48879 1.29084,-0.60059 0.19976,-0.11437 0.17265,-0.10428 2.09761,-0.78061 0.29581,-0.10393 0.80178,-0.23553 1.12437,-0.29244 0.32259,-0.0569 0.6426,-0.15 0.71112,-0.20687 0.0685,-0.0569 0.49564,-0.15045 0.94915,-0.20795 0.4535,-0.0575 0.92724,-0.15951 1.05276,-0.22668 0.12552,-0.0672 0.91086,-0.16295 1.74521,-0.21282 0.83434,-0.0499 1.85584,-0.14021 2.26998,-0.20073 1.087761,-0.15896 3.469741,-0.13522 4.840651,0.0483 0.65079,0.0871 1.52211,0.1599 1.93625,0.16179 0.41415,0.002 1.11277,0.0991 1.55249,0.21603 0.43972,0.11693 0.95481,0.21261 1.14463,0.21261 0.18982,0 0.55614,0.0957 0.81405,0.21277 0.2579,0.11703 0.60444,0.21384 0.77007,0.21514 0.16564,10e-4 0.43355,0.0708 0.59536,0.15449 0.1618,0.0837 0.48614,0.1878 0.72075,0.23138 0.23461,0.0436 0.52337,0.13978 0.6417,0.2138 0.11833,0.074 0.38456,0.16891 0.59163,0.21088 0.20707,0.042 0.44911,0.13815 0.53785,0.21373 0.0887,0.0756 0.31533,0.17011 0.50353,0.21008 0.18819,0.04 0.39985,0.14217 0.47034,0.22711 0.0705,0.0849 0.21165,0.15444 0.31368,0.15444 0.10203,0 0.29714,0.0968 0.43357,0.21514 0.13643,0.11833 0.31773,0.21514 0.40288,0.21514 0.0851,0 0.2779,0.0968 0.42833,0.21514 0.15042,0.11833 0.33744,0.21514 0.41557,0.21514 0.14826,0 0.64201,0.29946 1.41105,0.85581 0.24896,0.1801 0.51858,0.32746 0.59915,0.32746 0.0806,0 0.31255,0.15035 0.51548,0.33411 0.20294,0.18377 0.49,0.41134 0.6379,0.50573 0.14791,0.0944 0.55937,0.39344 0.91435,0.66457 0.35498,0.27114 0.86259,0.63654 1.12802,0.81201 1.26198,0.83426 5.88361,5.90787 6.32149,6.93972 0.0741,0.17466 0.1792,0.31757 0.23349,0.31757 0.0543,0 0.12988,0.14187 0.16796,0.31528 0.0381,0.1734 0.13368,0.36875 0.21244,0.43411 0.0787,0.0654 0.17464,0.28653 0.2131,0.4915 0.0385,0.20496 0.10535,0.37266 0.14866,0.37266 0.0433,0 0.21434,0.32674 0.38004,0.72609 0.16571,0.39936 0.36364,0.87151 0.43986,1.04924 0.0762,0.17773 0.17559,0.49166 0.22083,0.69763 0.0452,0.20597 0.14376,0.47201 0.21894,0.5912 0.0752,0.11919 0.16824,0.38614 0.20679,0.59321 0.0386,0.20707 0.13437,0.54592 0.21291,0.75299 0.25688,0.67725 0.60176,1.87781 0.60258,2.09761 4.1e-4,0.11833 0.0966,0.42616 0.21359,0.68406 0.11702,0.25791 0.21151,0.59675 0.20996,0.75299 -0.002,0.15624 0.0931,0.69552 0.21031,1.19841 0.11722,0.50289 0.26268,1.22899 0.32327,1.61355 0.0606,0.38456 0.16399,0.96544 0.22979,1.29084 0.18339,0.90683 0.0666,6.21314 -0.15509,7.04582 -0.0945,0.35498 -0.17258,1.03847 -0.17351,1.51886 -0.001,0.57312 -0.0756,1.10499 -0.21682,1.54688 -0.11832,0.3704 -0.21514,0.79056 -0.21514,0.9337 0,0.14314 -0.0734,0.40223 -0.16316,0.57577 -0.0897,0.17353 -0.19113,0.54628 -0.22533,0.82832 -0.0612,0.50443 -0.39545,1.48908 -0.64886,1.91122 -0.071,0.11832 -0.16239,0.44351 -0.20301,0.72263 -0.0406,0.27912 -0.14121,0.56338 -0.22353,0.6317 -0.0823,0.0683 -0.14966,0.1934 -0.14966,0.27797 0,0.0846 -0.0926,0.33278 -0.20579,0.55157 -0.11318,0.21879 -0.33406,0.66404 -0.49083,0.98944 -0.15677,0.3254 -0.33043,0.66424 -0.38591,0.75299 -0.0555,0.0887 -0.15039,0.28237 -0.21092,0.43028 -0.0605,0.1479 -0.22816,0.46255 -0.3725,0.6992 -0.14435,0.23665 -0.32472,0.55537 -0.40084,0.70825 -0.0761,0.15288 -0.27196,0.44332 -0.43521,0.64541 -0.16326,0.2021 -0.42567,0.56108 -0.58315,0.79774 -0.74395,1.11799 -0.9546,1.37847 -2.02251,2.50081 -0.62818,0.66022 -1.46648,1.45343 -1.86287,1.7627 -0.39639,0.30927 -0.79332,0.64268 -0.88206,0.7409 -0.26889,0.2976 -2.80613,2.15785 -3.09073,2.26605 -0.14614,0.0556 -0.51996,0.26978 -0.8307,0.47604 -0.31074,0.20626 -0.61626,0.37502 -0.67893,0.37502 -0.0627,0 -0.36413,0.16477 -0.66993,0.36616 -0.3058,0.20139 -0.71661,0.3963 -0.91292,0.43313 -0.19631,0.0368 -0.41613,0.13829 -0.48848,0.22547 -0.0724,0.0872 -0.21591,0.1585 -0.31901,0.1585 -0.10311,0 -0.31054,0.0968 -0.46097,0.21514 -0.15043,0.11833 -0.3876,0.21515 -0.52706,0.21515 -0.13945,0 -0.43418,0.0968 -0.65495,0.21513 -0.22077,0.11833 -0.4759,0.21514 -0.56694,0.21514 -0.091,0 -0.27588,0.0723 -0.41076,0.16069 -0.13488,0.0884 -0.48412,0.19199 -0.7761,0.23025 -0.29197,0.0383 -0.66157,0.13538 -0.82133,0.21581 -0.15976,0.0804 -0.41208,0.14624 -0.56071,0.14624 -0.14863,0 -0.52618,0.0921 -0.83901,0.20472 -0.36822,0.13254 -0.98599,0.22444 -1.75204,0.26065 -0.6508,0.0308 -1.30428,0.10199 -1.45219,0.15828 -0.37483,0.14265 -4.8384,0.22814 -6.40041,0.12258 z m 5.43228,-10.20466 c 0.71477,-0.12851 1.49648,-0.32326 2.04382,-0.50917 0.26624,-0.0904 0.7019,-0.20447 0.96813,-0.25341 0.56841,-0.1045 1.53906,-0.4478 1.74178,-0.61605 0.078,-0.0648 0.28684,-0.15236 0.464,-0.19464 0.17716,-0.0423 0.39472,-0.13367 0.48347,-0.20307 0.0887,-0.0694 0.47599,-0.2847 0.86055,-0.47843 0.63125,-0.31801 1.54183,-0.89131 1.91911,-1.20828 0.0793,-0.0666 0.49077,-0.39829 0.91434,-0.73701 1.56005,-1.24753 3.50065,-3.52217 4.1026,-4.80878 0.0879,-0.18797 0.30594,-0.58945 0.48444,-0.89219 0.17849,-0.30273 0.32454,-0.60952 0.32454,-0.68174 0,-0.0722 0.0968,-0.31196 0.21514,-0.53273 0.11833,-0.22077 0.21544,-0.48629 0.2158,-0.59004 3.7e-4,-0.10375 0.0812,-0.33385 0.1796,-0.51135 0.0984,-0.17749 0.2141,-0.61314 0.25707,-0.96812 0.043,-0.35498 0.1507,-0.86325 0.23939,-1.12949 0.17623,-0.52906 0.35638,-1.64045 0.52309,-3.22709 0.13992,-1.33169 0.0295,-5.37794 -0.16437,-6.02391 -0.0799,-0.26623 -0.1797,-0.88601 -0.22176,-1.37727 -0.0421,-0.49127 -0.14554,-1.05849 -0.22994,-1.2605 -0.0844,-0.202 -0.15346,-0.47846 -0.15346,-0.61436 0,-0.13589 -0.0968,-0.42771 -0.21514,-0.64848 -0.11833,-0.22077 -0.21514,-0.46395 -0.21514,-0.5404 0,-0.0765 -0.0968,-0.32889 -0.21514,-0.56099 -0.11833,-0.23209 -0.21514,-0.47955 -0.21514,-0.54991 0,-0.28128 -0.70598,-1.60154 -1.04741,-1.95877 -0.0747,-0.0782 -0.13586,-0.18275 -0.13586,-0.23237 0,-0.0496 -0.19362,-0.33518 -0.43028,-0.63457 -0.23665,-0.29939 -0.43028,-0.59754 -0.43028,-0.66256 0,-0.195 -1.40333,-1.94059 -2.09663,-2.60795 -0.60411,-0.58152 -1.95931,-1.58296 -2.14216,-1.58296 -0.0449,0 -0.28335,-0.15999 -0.52996,-0.35555 -0.24661,-0.19555 -0.5694,-0.41303 -0.71731,-0.48328 -0.1479,-0.0703 -0.34153,-0.17132 -0.43027,-0.22459 -0.0888,-0.0533 -0.28238,-0.15009 -0.43029,-0.21515 -0.1479,-0.065 -0.34153,-0.15877 -0.43027,-0.20827 -0.61308,-0.34195 -1.08866,-0.55698 -1.23187,-0.55698 -0.092,0 -0.34795,-0.0968 -0.56872,-0.21514 -0.22078,-0.11833 -0.51122,-0.21515 -0.64542,-0.21515 -0.13421,0 -0.42465,-0.0968 -0.64542,-0.21513 -0.22077,-0.11833 -0.51344,-0.21514 -0.65037,-0.21514 -0.13694,0 -0.37968,-0.067 -0.53945,-0.1488 -0.15976,-0.0818 -0.60511,-0.18292 -0.98967,-0.22463 -0.38457,-0.0417 -0.90663,-0.14416 -1.16014,-0.22769 -0.65548,-0.21597 -5.248361,-0.21558 -6.000631,4e-4 -0.29176,0.0838 -0.79671,0.1863 -1.12211,0.22776 -0.3254,0.0414 -0.72235,0.1423 -0.88211,0.22411 -0.15976,0.0818 -0.40179,0.15038 -0.53785,0.15239 -0.13605,0.002 -0.441,0.0972 -0.67765,0.21149 -0.23666,0.11431 -0.54171,0.20948 -0.67789,0.21149 -0.13619,0.002 -0.42663,0.0962 -0.64542,0.20944 -0.21879,0.11318 -0.67475,0.33608 -1.01323,0.49531 -0.33848,0.15924 -0.84659,0.45389 -1.12914,0.65477 -0.28254,0.20088 -0.55067,0.36524 -0.59584,0.36524 -0.0995,0 -1.12188,0.70137 -1.43148,0.98198 -0.12213,0.11071 -0.27515,0.20129 -0.34003,0.20129 -0.21657,0 -3.10704,2.95566 -3.42147,3.49862 -0.17047,0.29439 -0.45837,0.75308 -0.639761,1.01931 -0.18139,0.26624 -0.38972,0.60509 -0.46295,0.75299 -0.0732,0.14791 -0.22892,0.41414 -0.34599,0.59164 -0.11707,0.17749 -0.26694,0.44372 -0.33306,0.59163 -0.0661,0.14791 -0.16355,0.34154 -0.21653,0.43028 -0.053,0.0888 -0.14496,0.28237 -0.20439,0.43028 -0.0594,0.14791 -0.17484,0.38994 -0.25648,0.53785 -0.0816,0.14791 -0.18385,0.48675 -0.22712,0.75299 -0.0433,0.26623 -0.13885,0.60508 -0.21237,0.75298 -0.0735,0.14792 -0.16599,0.47974 -0.2055,0.7374 -0.0395,0.25765 -0.15278,0.6207 -0.25173,0.80677 -0.15894,0.29886 -0.18048,0.8212 -0.18474,4.47974 -0.004,3.62968 0.0168,4.18132 0.17043,4.46415 0.0964,0.17749 0.21077,0.63736 0.25416,1.02192 0.0434,0.38456 0.14585,0.82991 0.2277,0.98968 0.0818,0.15975 0.14954,0.45019 0.15046,0.64541 8.1e-4,0.19522 0.19454,0.78826 0.43028,1.31785 0.23574,0.5296 0.42861,1.02925 0.42861,1.11033 0,0.15298 0.52272,1.11229 0.65862,1.20872 0.0425,0.0302 0.11145,0.1996 0.15317,0.3765 0.0818,0.34673 0.594211,1.23547 0.712541,1.23578 0.0397,1.1e-4 0.10211,0.13672 0.13876,0.30358 0.0366,0.16686 0.22425,0.4694 0.41688,0.67231 0.19264,0.20291 0.65367,0.74408 1.02452,1.20259 0.37086,0.45852 0.71139,0.83367 0.75676,0.83367 0.0454,0 0.14692,0.12041 0.22568,0.26757 0.0788,0.14717 0.69122,0.69174 1.36101,1.21016 1.84475,1.42785 2.15813,1.64089 2.52018,1.7133 0.18329,0.0367 0.3568,0.12801 0.38557,0.20301 0.0288,0.075 0.18167,0.16881 0.33976,0.20849 0.15809,0.0397 0.3517,0.12548 0.43026,0.19067 0.16425,0.13632 1.31025,0.61592 1.47351,0.61666 0.06,2.8e-4 0.2898,0.0973 0.51057,0.21564 0.22077,0.11833 0.5208,0.21514 0.66674,0.21514 0.14593,0 0.51094,0.0968 0.81114,0.21514 0.3002,0.11833 0.69242,0.21514 0.87161,0.21514 0.17919,0 0.43154,0.0568 0.56076,0.12625 0.12923,0.0694 0.38018,0.16129 0.55767,0.20413 0.44483,0.10735 6.126101,0.10738 6.723121,4e-5 z m -122.091435,9.4997 c -0.421594,-0.38088 -0.430591,-0.40421 -0.430591,-1.11631 0,-0.49103 0.04876,-0.76777 0.150103,-0.85188 0.08256,-0.0685 0.180648,-0.2874 0.217987,-0.48642 0.03732,-0.19902 0.139211,-0.42105 0.22639,-0.49341 0.08718,-0.0724 0.158511,-0.18684 0.158511,-0.25443 0,-0.0676 0.09036,-0.29159 0.200798,-0.49779 0.110438,-0.20619 0.235176,-0.53166 0.277198,-0.72326 0.04202,-0.19161 0.118026,-0.3741 0.168903,-0.40554 0.111065,-0.0686 0.643939,-1.17488 0.643939,-1.33682 0,-0.0627 0.16898,-0.43809 0.375514,-0.83421 0.206538,-0.39611 0.405225,-0.87856 0.441531,-1.07209 0.03631,-0.19354 0.133565,-0.40795 0.216117,-0.47646 0.08256,-0.0685 0.150103,-0.17987 0.150103,-0.24746 0,-0.0676 0.09681,-0.30352 0.215141,-0.52429 0.118326,-0.22077 0.215141,-0.49186 0.215141,-0.60242 0,-0.11057 0.08545,-0.31647 0.18989,-0.45757 0.295254,-0.39888 0.670666,-1.12944 0.670666,-1.30513 0,-0.0873 0.193626,-0.53516 0.430282,-0.99523 0.236652,-0.46007 0.43028,-0.92403 0.43028,-1.03101 0,-0.10699 0.16302,-0.47545 0.36227,-0.81881 0.19924,-0.34336 0.39415,-0.80094 0.43312,-1.01687 0.039,-0.21591 0.14219,-0.45177 0.22937,-0.52412 0.0872,-0.0723 0.15851,-0.20075 0.15851,-0.28531 0,-0.0846 0.0924,-0.33278 0.2054297,-0.55158 0.11299,-0.21879 0.37491,-0.76085 0.58204,-1.20458 0.20713,-0.44372 0.57454,-1.22936 0.81648,-1.74585 0.24192,-0.5165 0.43987,-0.96627 0.43987,-0.99951 0,-0.1382 0.65169,-1.44104 0.75177,-1.50289 0.0598,-0.037 0.10879,-0.18468 0.10879,-0.32823 0,-0.24006 0.27246,-0.87414 1.2487,-2.90601 0.20066,-0.41766 0.36485,-0.80894 0.36485,-0.8695 0,-0.0606 0.19363,-0.47764 0.43028,-0.92682 0.23665,-0.44918 0.43028,-0.87347 0.43028,-0.94288 0,-0.0694 0.19362,-0.52811 0.43028,-1.01935 0.23665,-0.49125 0.4302802,-0.94624 0.4302802,-1.0111 0,-0.0649 0.16664,-0.43754 0.37032,-0.82817 0.20367,-0.39064 0.40102,-0.85004 0.43855,-1.02091 0.0375,-0.17087 0.10662,-0.33439 0.15354,-0.36339 0.0469,-0.029 0.2183,-0.33209 0.38085,-0.67354 0.57157,-1.2007 1.15648,-2.45288 1.29495,-2.77222 0.0769,-0.17749 0.26514003,-0.59805 0.41818003,-0.93457 0.15305,-0.33653 0.27827,-0.67779 0.27827,-0.75837 0,-0.0806 0.0476,-0.19405 0.10567,-0.25217 0.0581,-0.0581 0.17562,-0.32193 0.26113,-0.58626 0.26024,-0.8045 0.47347,-1.35057 0.82614,-2.11583 0.60345997,-1.3094 0.72233997,-1.58782 0.79452997,-1.86077 0.0391,-0.14791 0.13786,-0.41415 0.21942,-0.59164 0.48049,-1.04565 0.69749,-1.55822 0.69749,-1.6475 0,-0.0556 0.0726,-0.16132 0.16136,-0.23497 0.0887,-0.0737 0.16135,-0.24247 0.16135,-0.37516 0,-0.13269 0.0968,-0.36432 0.21514,-0.51475 0.11833,-0.15043 0.21514,-0.33479 0.21514,-0.4097 0,-0.12727 0.61646,-1.48031 1.08393,-2.37907 0.1138,-0.2188 0.20691,-0.4497 0.20691,-0.51312 0,-0.11245 0.72094,-1.70928 1.02892,-2.27899 0.0849,-0.15703 0.15435,-0.35623 0.15435,-0.44266 0,-0.0864 0.0968,-0.28022 0.21514,-0.43065 0.11832,-0.15043 0.21514,-0.35309 0.21514,-0.45037 0,-0.15128 0.2086,-0.6163 0.55689,-1.24139 0.0494,-0.0888 0.11619,-0.23397 0.14833,-0.32271 0.0321,-0.0888 0.14677,-0.33078 0.25475,-0.53785 0.10797,-0.20708 0.2297,-0.53048 0.2705,-0.71867 0.0408,-0.18819 0.14369,-0.39984 0.22864,-0.47034 0.0849,-0.0705 0.15444,-0.23673 0.15444,-0.36942 0,-0.13269 0.0968,-0.36433 0.21513,-0.51475 0.11833,-0.15043 0.21514,-0.32727 0.21514,-0.39298 0,-0.25548 0.57769,-1.20574 0.9738,-1.60185 l 0.41642,-0.41642 1.3118201,-0.0705 c 1.67782,-0.0902 5.68418,-0.0901 7.86267,2.8e-4 l 1.6902,0.0701 0.51498,0.50287 c 0.62949,0.61467 0.78391,0.81093 0.78391,0.99626 0,0.0787 0.0964,0.3322 0.21418,0.56325 0.1178,0.23105 0.24388,0.57841 0.28018,0.7719 0.0363,0.19349 0.13354,0.40786 0.2161,0.47638 0.0825,0.0685 0.1501,0.20522 0.1501,0.30379 0,0.0986 0.0968,0.36912 0.21514,0.60121 0.11832,0.23209 0.21514,0.49075 0.21514,0.57479 0,0.084 0.0909,0.30374 0.20205,0.48821 0.11112,0.18448 0.23342,0.51207 0.27177,0.72799 0.0383,0.21592 0.14105,0.45177 0.22823,0.52413 0.0872,0.0724 0.15851,0.2269 0.15851,0.34344 0,0.11654 0.0968,0.33497 0.21514,0.4854 0.11832,0.15043 0.21514,0.38206 0.21514,0.51475 0,0.13269 0.0695,0.29893 0.15444,0.36942 0.0849,0.0705 0.18486,0.2667 0.22205,0.43602 0.0372,0.16931 0.13711,0.36552 0.22205,0.43602 0.085,0.0705 0.15444,0.20882 0.15444,0.30739 0,0.0986 0.0968,0.36912 0.21514,0.60121 0.11833,0.23209 0.21546,0.49646 0.21585,0.58749 3.9e-4,0.091 0.0969,0.31072 0.21443,0.48821 0.11755,0.17749 0.21405,0.43414 0.21444,0.57032 3.8e-4,0.13619 0.0917,0.42663 0.20286,0.64542 0.23529,0.46301 0.40834,0.84815 0.87955,1.95757 0.18847,0.44372 0.37965,0.85518 0.42483,0.91435 0.0452,0.0592 0.11507,0.26154 0.15529,0.44973 0.0402,0.1882 0.13883,0.39671 0.21915,0.46337 0.0803,0.0667 0.17752,0.30756 0.216,0.53536 0.0385,0.22779 0.13755,0.50334 0.22013,0.61233 0.0826,0.109 0.1517,0.30116 0.15358,0.42703 0.002,0.12588 0.0681,0.2825 0.14705,0.34807 0.079,0.0656 0.27714,0.47084 0.44032,0.90062 0.28485,0.75027 0.5655,1.40422 0.88151,2.05408 0.0814,0.16749 0.14809,0.35 0.14809,0.40558 0,0.0556 0.19362,0.51052 0.43028,1.011 0.23665,0.50048 0.43028,0.96235 0.43028,1.02638 0,0.064 0.12522,0.39177 0.27826,0.72829 0.31746,0.69805 0.53091,1.17856 0.79744,1.79514 0.26651,0.61657 0.47996,1.09708 0.79742,1.79513 0.15305,0.33652 0.27981,0.67537 0.28169,0.75299 0.002,0.0776 0.0745,0.23508 0.16136,0.34993 0.0869,0.11484 0.15793,0.29335 0.15793,0.39669 0,0.10333 0.19294,0.54184 0.42877,0.97446 0.23582,0.43262 0.42945,0.91219 0.43028,1.06572 8.1e-4,0.15353 0.0983,0.36676 0.21665,0.47385 0.11833,0.10708 0.21514,0.27808 0.21514,0.37999 0,0.10191 0.0679,0.24162 0.1508,0.31045 0.0829,0.0688 0.18352,0.25629 0.2235,0.41656 0.04,0.16027 0.23837,0.64097 0.44083,1.06822 0.20248,0.42725 0.36814,0.83068 0.36814,0.89651 0,0.0658 0.19362,0.47458 0.43028,0.90835 0.23665,0.43377 0.43028,0.9109 0.43028,1.0603 0,0.14939 0.0483,0.30148 0.10736,0.33798 0.059,0.0365 0.23046,0.34189 0.38092,0.67866 0.15045,0.33677 0.36334,0.80593 0.47309,1.04258 0.43314,0.93407 0.63558,1.41002 0.70916,1.66733 0.0423,0.14791 0.12077,0.32396 0.17438,0.39121 0.17628,0.22116 0.62828,1.16551 0.62874,1.31361 2.5e-4,0.0798 0.19408,0.54697 0.43073,1.03822 0.23666,0.49124 0.43028,0.96461 0.43028,1.05193 0,0.0873 0.0695,0.21645 0.15444,0.28695 0.0849,0.0705 0.18487,0.2667 0.22206,0.43602 0.0372,0.16931 0.1371,0.36552 0.22205,0.43602 0.0849,0.0705 0.15595,0.23115 0.1578,0.35703 0.002,0.12587 0.12243,0.47089 0.26794,0.76671 0.14552,0.29581 0.26503,0.59243 0.26557,0.65914 4e-4,0.0667 0.0736,0.18155 0.16233,0.2552 0.0888,0.0737 0.16136,0.22731 0.16136,0.34146 0,0.11416 0.0968,0.39867 0.21514,0.63225 0.11832,0.23359 0.31195,0.61581 0.43028,0.8494 0.11832,0.23358 0.21513,0.5423 0.21513,0.68603 0,0.14374 0.0695,0.31901 0.15445,0.38951 0.0849,0.0705 0.18486,0.2667 0.22205,0.43602 0.0372,0.16931 0.13205,0.36132 0.2108,0.42668 0.0787,0.0654 0.1751,0.28894 0.21411,0.49686 0.0692,0.36884 0.50654,1.28725 0.7102,1.4914 0.0561,0.0562 0.10194,0.19483 0.10194,0.30806 0,0.18996 0.0813,0.37511 0.65612,1.49353 0.11244,0.21879 0.20444,0.51541 0.20444,0.65914 0,0.14373 0.0679,0.31765 0.1508,0.38649 0.0829,0.0688 0.18353,0.25628 0.22352,0.41656 0.04,0.16027 0.13876,0.36473 0.21947,0.45435 0.129,0.14323 0.19883,0.35584 0.44544,1.35612 0.0967,0.39234 -0.24389,0.86866 -0.83271,1.1644 l -0.5469,0.2747 h -4.67753 c -3.24658,0 -4.7494,-0.0369 -4.91248,-0.12071 -0.12922,-0.0664 -0.37166,-0.24792 -0.53873,-0.40339 -0.34402,-0.32012 -1.04061,-1.41811 -1.04131,-1.64137 -2.6e-4,-0.081 -0.19388,-0.52946 -0.43028,-0.99657 -0.2364,-0.4671 -0.42982,-0.93314 -0.42982,-1.03563 0,-0.10249 -0.0726,-0.24661 -0.16135,-0.32026 -0.0888,-0.0737 -0.16135,-0.18244 -0.16135,-0.24175 0,-0.10791 -0.37958,-1.03595 -0.76388,-1.86765 -0.11234,-0.24313 -0.20425,-0.49133 -0.20425,-0.55156 0,-0.0602 -0.0726,-0.16977 -0.16136,-0.24342 -0.0887,-0.0737 -0.16135,-0.22927 -0.16135,-0.34581 0,-0.11654 -0.0968,-0.33497 -0.21514,-0.4854 -0.11833,-0.15043 -0.21514,-0.34405 -0.21514,-0.43028 0,-0.0862 -0.0968,-0.27985 -0.21514,-0.43028 -0.11833,-0.15043 -0.21535,-0.37589 -0.21561,-0.50103 -2.6e-4,-0.12514 -0.19388,-0.6097 -0.43028,-1.07681 -0.23639,-0.46711 -0.42981,-0.89704 -0.42981,-0.95539 0,-0.16956 -0.92759,-1.05016 -1.37024,-1.30083 l -0.40466,-0.22916 H 14.728398 2.0889479 l -0.45732,0.25297 c -0.47641,0.26353 -1.42514997,1.15627 -1.42514997,1.34103 0,0.10296 -0.39227,0.92241 -0.70453,1.47174 -0.0841,0.14791 -0.15357,0.37131 -0.15444,0.49645 -8.2e-4,0.12514 -0.0984,0.3506 -0.21673,0.50103 -0.11833,0.15043 -0.21514003,0.33084 -0.21514003,0.40093 0,0.0701 -0.0968,0.25049 -0.21514,0.40092 -0.11833,0.15043 -0.21514,0.36397 -0.21514,0.47453 0,0.11056 -0.0968,0.38166 -0.21514,0.60243 -0.11833,0.22077 -0.21514,0.4567 -0.21514,0.52429 0,0.0676 -0.0726,0.18314 -0.16136,0.25679 -0.0887,0.0737 -0.16179,0.2127 -0.16233,0.30899 -4.1e-4,0.0963 -0.12004,0.41711 -0.26556,0.71293 -0.14552,0.29581 -0.26609,0.59243 -0.26794,0.65914 -0.002,0.0667 -0.076,0.18155 -0.16472,0.2552 -0.0887,0.0736 -0.16136,0.22224 -0.16136,0.33019 0,0.19989 -0.36203,0.94219 -0.68306,1.40052 -0.0976,0.13938 -0.17749,0.40921 -0.17749,0.59963 0,0.19041 -0.0458,0.37453 -0.1018302,0.40914 -0.056,0.0346 -0.25853,0.34798 -0.45006,0.69636 -0.26405,0.48031 -0.45681,0.68766 -0.79741,0.85776 -0.43603,0.21777 -0.59597,0.22433 -5.4659697,0.22433 h -5.016796 z m 39.013903,-22.5745 c 0.51244,-0.3451 0.56485,-0.42071 0.68167,-0.98342 0.14672,-0.70673 -0.004,-2.05844 -0.27236,-2.44148 -0.0883,-0.12606 -0.16054,-0.30386 -0.16054,-0.39511 0,-0.0912 -0.0904,-0.33461 -0.2008,-0.54081 -0.11044,-0.20619 -0.23457,-0.52887 -0.27584,-0.71706 -0.0413,-0.1882 -0.14454,-0.39985 -0.22948,-0.47035 -0.0849,-0.0705 -0.15444,-0.19678 -0.15444,-0.28064 0,-0.0839 -0.0968,-0.34224 -0.21514,-0.57418 -0.11833,-0.23194 -0.21514,-0.56293 -0.21514,-0.73553 0,-0.1726 -0.0695,-0.3715 -0.15444,-0.442 -0.0849,-0.0705 -0.18651,-0.28215 -0.2257,-0.47034 -0.0392,-0.18819 -0.13277,-0.43969 -0.20795,-0.55889 -0.0752,-0.11919 -0.17342,-0.38543 -0.21832,-0.59163 -0.0449,-0.20621 -0.14806,-0.4704 -0.22925,-0.5871 -0.0812,-0.1167 -0.14793,-0.33453 -0.14832,-0.48406 -3.9e-4,-0.14954 -0.0969,-0.41711 -0.21443,-0.59459 -0.11755,-0.17749 -0.21404,-0.41422 -0.21443,-0.52607 -3.9e-4,-0.11185 -0.10488,-0.42649 -0.2322,-0.69921 -0.40902,-0.87607 -1.51036,-3.17635 -1.65373,-3.45401 -0.0764,-0.14791 -0.17257,-0.44873 -0.21377,-0.66848 -0.0412,-0.21975 -0.14246,-0.45561 -0.22501,-0.52413 -0.0826,-0.0685 -0.1501,-0.19377 -0.1501,-0.27833 0,-0.0846 -0.0916,-0.33278 -0.2036,-0.55158 -0.61837,-1.20825 -1.08724,-2.26916 -1.08724,-2.46009 0,-0.11942 -0.0968,-0.30473 -0.21514,-0.41182 -0.11833,-0.10708 -0.21514,-0.23224 -0.21514,-0.27814 0,-0.20665 -0.51064,-0.84972 -0.7601,-0.95723 -0.56774,-0.24468 -1.05099,0.16291 -1.68789,1.42362 -0.0822,0.1627 -0.19104,0.29582 -0.24188,0.29582 -0.0508,0 -0.12241,0.10891 -0.15903,0.24203 -0.0366,0.13311 -0.23097,0.58087 -0.43189,0.99502 -0.60577,1.24868 -0.91443,1.96818 -0.91443,2.13156 0,0.0852 -0.0679,0.21117 -0.1508,0.28 -0.0829,0.0688 -0.18276,0.25247 -0.22181,0.40807 -0.0391,0.1556 -0.16482,0.40218 -0.27948,0.54794 -0.11466,0.14577 -0.20847,0.35246 -0.20847,0.45931 0,0.10686 -0.0491,0.22466 -0.1092,0.26178 -0.0601,0.0371 -0.18109,0.2215 -0.26895,0.40973 -0.0879,0.18824 -0.30496,0.60753 -0.4824301,0.93176 -0.17748,0.32422 -0.32269,0.65543 -0.32269,0.73602 0,0.0806 -0.0968,0.26959 -0.21514,0.42002 -0.11833,0.15043 -0.21514,0.35355 -0.21514,0.45139 0,0.0978 -0.0968,0.36778 -0.21514,0.59987 -0.11832,0.23209 -0.21514,0.51686 -0.21514,0.63281 0,0.11595 -0.0669,0.28723 -0.14867,0.38064 -0.0818,0.0934 -0.28076,0.55656 -0.44221,1.02923 -0.16144,0.47267 -0.36078,0.95541 -0.44296,1.07274 -0.0822,0.11733 -0.14974,0.31148 -0.15013,0.43143 -4e-4,0.11995 -0.0969,0.36332 -0.21443,0.54081 -0.11755,0.17749 -0.21405,0.42509 -0.21443,0.55023 -3.9e-4,0.12514 -0.0975,0.35061 -0.21585,0.50104 -0.11833,0.15042 -0.21514,0.35075 -0.21514,0.44517 0,0.0944 -0.0968,0.3523 -0.21514,0.57307 -0.11833,0.22078 -0.21514,0.46434 -0.21514,0.54125 0,0.0769 -0.0701,0.24705 -0.15584,0.37809 -0.14202,0.21712 -0.3074,0.91535 -0.45237,1.90994 -0.0332,0.22769 0.0277,0.63865 0.15144,1.02191 0.17249,0.53427 0.28474,0.69368 0.67387,0.95694 0.2568,0.17374 0.63975,0.3497 0.851,0.39102 0.21125,0.0413 3.6279701,0.0807 7.5927001,0.0875 l 7.20862,0.0124 z m 29.7423,22.69339 c -0.25556,-0.14176 -0.5702,-0.39193 -0.6992,-0.55592 l -0.23454,-0.29817 -0.0275,-29.02728 -0.0275,-29.02728 0.34185,-0.34192 0.34184,-0.34191 4.47249,-0.0372 c 2.45987,-0.0205 4.86805,-0.004 5.35152,0.0359 0.8728,0.0726 0.88111,0.0761 1.17369,0.4983 l 0.29468,0.42521 -0.0753,11.64055 c -0.0414,6.4023 -0.0928,12.68128 -0.11429,13.95329 -0.0737,4.37355 -0.0904,13.63306 -0.0247,13.73929 0.0361,0.0585 0.0723,4.02212 0.0803,8.80805 0.0146,8.6826 0.0141,8.70341 -0.22248,9.48175 -0.18493,0.60855 -0.31159,0.83323 -0.57612,1.02191 -0.33776,0.24093 -0.35692,0.24194 -4.96458,0.26257 l -4.6255,0.0207 z m 88.887322,0.0937 c -0.097,-0.097 -0.25782,-0.30062 -0.35728,-0.4524 -0.16755,-0.25568 -0.18229,-1.71529 -0.20051,-19.85843 -0.0108,-10.77036 -0.0456,-23.63576 -0.0774,-28.58978 -0.0596,-9.29428 -0.0304,-10.13652 0.35594,-10.27503 0.0943,-0.0338 0.31035,-0.15783 0.48015,-0.27561 0.29633,-0.20555 0.48883,-0.21407 4.78999,-0.21203 l 4.48125,0.002 0.60668,0.287 c 0.74399,0.35197 1.66382,1.34753 2.81758,3.04956 0.17044,0.25144 0.34846,0.45717 0.39559,0.45717 0.0471,0 0.11906,0.10891 0.15985,0.24203 0.0408,0.13312 0.23074,0.43566 0.42212,0.67231 0.19138,0.23666 0.37891,0.52831 0.41672,0.64811 0.0378,0.11981 0.23159,0.38604 0.43061,0.59164 0.19901,0.20559 0.39929,0.49482 0.44507,0.64273 0.0458,0.1479 0.22199,0.44531 0.39158,0.66089 0.16959,0.21559 0.30835,0.46958 0.30835,0.56444 0,0.0949 0.17702,0.3684 0.39339,0.60789 0.21636,0.23949 0.69737,0.90522 1.06889,1.47939 0.76703,1.1854 1.19136,1.7784 1.82466,2.54994 0.24282,0.29582 0.60307,0.79198 0.80057,1.10259 0.19749,0.31061 0.3887,0.56474 0.4249,0.56474 0.0362,0 0.30332,0.36305 0.59359,0.80678 0.29028,0.44372 0.56389,0.80677 0.60802,0.80677 0.0441,0 0.11056,0.0955 0.1476,0.2122 0.037,0.11671 0.31864,0.54067 0.62577,0.94214 0.30714,0.40147 0.70365,0.94737 0.88114,1.2131 0.17749,0.26574 0.38322,0.54713 0.45717,0.62531 0.0739,0.0782 0.13446,0.19384 0.13446,0.25703 0,0.0632 0.26624,0.44439 0.59164,0.84713 0.32539,0.40274 0.59163,0.7745 0.59163,0.82613 0,0.0516 0.19363,0.3534 0.43028,0.67059 0.23665,0.31719 0.43028,0.62345 0.43028,0.68059 0,0.0571 0.20573,0.33105 0.45717,0.60871 0.25144,0.27767 0.675,0.81487 0.94124,1.1938 0.26623,0.37893 0.7801,1.07964 1.14194,1.55714 0.36183,0.4775 0.71365,0.97239 0.78182,1.09976 0.0682,0.12737 0.2505,0.36626 0.40519,0.53086 0.15469,0.1646 0.34565,0.44449 0.42436,0.62197 0.0787,0.17749 0.27802,0.47957 0.44291,0.67128 0.16489,0.19171 0.49342,0.61658 0.73008,0.94415 0.23665,0.32758 0.636,0.86634 0.88745,1.19725 0.25144,0.33091 0.4587,0.65634 0.46058,0.72318 0.002,0.0668 0.1713,0.28861 0.3765,0.49284 0.20519,0.20422 0.37308,0.43523 0.37308,0.51335 0,0.0781 0.18671,0.34669 0.41491,0.59682 0.22821,0.25012 0.43394,0.50429 0.45718,0.56481 0.0591,0.1539 0.71721,1.0454 1.19862,1.62367 0.22187,0.26651 0.40339,0.52752 0.40339,0.58003 0,0.0851 0.23131,0.37635 0.68261,0.85956 0.0829,0.0888 0.18253,0.25817 0.22144,0.3765 0.0389,0.11832 0.18883,0.35936 0.33317,0.53564 0.21312,0.26029 0.28827,0.29465 0.40002,0.1829 0.11066,-0.11066 0.13767,-3.69126 0.13797,-18.28991 4.1e-4,-20.46869 -0.0877,-18.51674 0.85537,-18.94636 0.45374,-0.2067 0.69139,-0.21736 4.84552,-0.21736 4.05596,0 4.40066,0.0145 4.81965,0.20369 0.2482,0.11203 0.54461,0.22094 0.65868,0.24203 0.11864,0.0219 0.25061,0.17644 0.30837,0.36105 0.14158,0.45253 0.22725,55.16849 0.0891,56.88628 -0.12086,1.50238 -0.13653,1.55713 -0.52873,1.84684 -0.27826,0.20555 -0.48896,0.21667 -4.72607,0.24936 l -4.43482,0.0342 -0.3866,-0.29487 c -0.4152,-0.31669 -2.13738,-2.47591 -2.95293,-3.7023 -0.0887,-0.13345 -0.26241,-0.36902 -0.38592,-0.52349 -0.12352,-0.15447 -0.65148,-0.91014 -1.17324,-1.67926 -0.52177,-0.76912 -1.14803,-1.66464 -1.39169,-1.99004 -0.24366,-0.3254 -0.58548,-0.80946 -0.7596,-1.0757 -0.17411,-0.26624 -0.37937,-0.55667 -0.45612,-0.64542 -0.0768,-0.0887 -0.35556,-0.45179 -0.61957,-0.80677 -0.26401,-0.35498 -0.61421,-0.81036 -0.77822,-1.01196 -0.16401,-0.20159 -0.39501,-0.52773 -0.51333,-0.72474 -0.30275,-0.50405 -0.76872,-1.16071 -1.40113,-1.97446 -0.29886,-0.38456 -0.69106,-0.92568 -0.87155,-1.20248 -0.1805,-0.27681 -0.45937,-0.66406 -0.61972,-0.86056 -0.60135,-0.73695 -1.14147,-1.48373 -1.14147,-1.57823 0,-0.0538 -0.20573,-0.36816 -0.45717,-0.69862 -0.25145,-0.33045 -0.6266,-0.84616 -0.83367,-1.14602 -0.20707,-0.29985 -0.48541,-0.66708 -0.61853,-0.81606 -0.13311,-0.14898 -0.24203,-0.31856 -0.24203,-0.37685 0,-0.0583 -0.44776,-0.72324 -0.99502,-1.47767 -0.54726,-0.75442 -1.04343,-1.45204 -1.10259,-1.55026 -0.22196,-0.3685 -0.76842,-1.12691 -1.29927,-1.80322 -0.30185,-0.38456 -0.71153,-0.98838 -0.91039,-1.34181 -0.33405,-0.59369 -0.51258,-0.85236 -0.80831,-1.17119 -0.0625,-0.0674 -0.14797,-0.19507 -0.18999,-0.28382 -0.042,-0.0887 -0.21987,-0.37918 -0.39521,-0.64542 -0.17535,-0.26623 -0.36298,-0.58242 -0.41696,-0.70265 -0.054,-0.12022 -0.25499,-0.39573 -0.44667,-0.61224 -0.33603,-0.37956 -0.96331,-1.23301 -1.78523,-2.42893 -0.21566,-0.31379 -0.53689,-0.73407 -0.71386,-0.93395 -0.17696,-0.19989 -0.37625,-0.45896 -0.44287,-0.57573 -0.12979,-0.2275 -2.30216,-3.13727 -2.64313,-3.54033 -0.23503,-0.27782 -0.51886,-0.3088 -0.81899,-0.0894 -0.20496,0.14985 -0.20924,0.45794 -0.23186,16.70022 -0.0294,21.07615 -0.017,20.30875 -0.33611,20.82353 -0.47255,0.76227 -0.20229,0.72601 -5.41208,0.72601 -4.21438,0 -4.71973,-0.0183 -4.8779,-0.17644 z"
       id="path1" /></g></svg>
