<?xml version="1.0" encoding="UTF-8" standalone="no"?>
<!-- Created with Inkscape (http://www.inkscape.org/) -->

<svg
   width="64.181305mm"
   height="97.0298mm"
   viewBox="0 0 64.181305 97.0298"
   version="1.1"
   id="svg1"
   xml:space="preserve"
   xmlns:inkscape="http://www.inkscape.org/namespaces/inkscape"
   xmlns:sodipodi="http://sodipodi.sourceforge.net/DTD/sodipodi-0.dtd"
   xmlns:xlink="http://www.w3.org/1999/xlink"
   xmlns="http://www.w3.org/2000/svg"
   xmlns:svg="http://www.w3.org/2000/svg"><sodipodi:namedview
     id="namedview1"
     pagecolor="#ffffff"
     bordercolor="#000000"
     borderopacity="0.25"
     inkscape:showpageshadow="2"
     inkscape:pageopacity="0.0"
     inkscape:pagecheckerboard="0"
     inkscape:deskcolor="#d1d1d1"
     inkscape:document-units="mm" /><defs
     id="defs1"><linearGradient
       id="linearGradient1"
       inkscape:collect="always"><stop
         style="stop-color:#1eeaf7;stop-opacity:1;"
         offset="0"
         id="stop1" /><stop
         style="stop-color:#0086cc;stop-opacity:1;"
         offset="1"
         id="stop2" /></linearGradient><linearGradient
       inkscape:collect="always"
       xlink:href="#linearGradient1"
       id="linearGradient3"
       gradientUnits="userSpaceOnUse"
       gradientTransform="matrix(0.40656308,0,0,0.40656308,262.45557,485.55969)"
       x1="-423.77213"
       y1="497.30197"
       x2="455.13208"
       y2="1069.4388" /></defs><g
     inkscape:label="Capa 1"
     inkscape:groupmode="layer"
     id="layer1"
     transform="translate(-87.08861,-684.50261)"><path
       style="fill:url(#linearGradient3);stroke-width:0.406563"
       d="m 134.43763,781.46242 c -0.23666,-0.0465 -0.56655,-0.14011 -0.73312,-0.208 -0.16653,-0.0679 -0.43962,-0.12343 -0.60675,-0.12343 -0.16718,0 -0.515,-0.0958 -0.77292,-0.21277 -0.25788,-0.11703 -0.57496,-0.21384 -0.70457,-0.21515 -0.12962,-10e-4 -0.64705,-0.19598 -1.14981,-0.43264 -0.50279,-0.23665 -0.96839,-0.43028 -1.03474,-0.43028 -0.0663,0 -0.34245,-0.16942 -0.61367,-0.37649 -0.27117,-0.20707 -0.53133,-0.37649 -0.57813,-0.37649 -0.12949,0 -1.69232,-1.2477 -2.34168,-1.86951 -0.31639,-0.30295 -0.82829,-0.88981 -1.13752,-1.30415 -0.30927,-0.41433 -0.64542,-0.83645 -0.74698,-0.93803 -0.1016,-0.10158 -0.23585,-0.33136 -0.29834,-0.51061 -0.0625,-0.17926 -0.15392,-0.32591 -0.20324,-0.32591 -0.0493,0 -0.31602,-0.47197 -0.59273,-1.04881 -0.27666,-0.57685 -0.56866,-1.17425 -0.64883,-1.32756 -0.0801,-0.15331 -0.17889,-0.49215 -0.21938,-0.75299 -0.0407,-0.26083 -0.13917,-0.56972 -0.21914,-0.68642 -0.08,-0.1167 -0.14762,-0.38293 -0.15022,-0.59163 -0.004,-0.2087 -0.0814,-0.57308 -0.17519,-0.80973 -0.25642,-0.64729 -0.33302,-3.8893 -0.10628,-4.50043 0.0914,-0.24628 0.19727,-0.68982 0.2354,-0.98563 0.0382,-0.29582 0.13478,-0.73148 0.21487,-0.96813 0.08,-0.23666 0.17507,-0.65625 0.21117,-0.93244 0.0362,-0.27619 0.13583,-0.56045 0.22166,-0.6317 0.0859,-0.0712 0.15608,-0.17826 0.15608,-0.23782 0,-0.16004 0.97022,-2.11293 1.08495,-2.18384 0.28472,-0.17596 -0.0815,-0.61859 -2.22878,-2.69364 -3.08085,-2.97729 -3.00547,-2.90601 -3.85747,-3.64726 -0.87492,-0.76122 -2.93075,-2.73915 -4.41771,-4.25038 -0.74348,-0.75558 -1.13208,-1.07433 -1.3097,-1.07433 -0.13893,0 -0.50638,0.18153 -0.81654,0.40339 -0.31017,0.22186 -0.63973,0.45179 -0.73231,0.51096 -0.0926,0.0592 -0.35712,0.23218 -0.58781,0.38447 -0.23072,0.1523 -0.63732,0.39359 -0.90354,0.53621 -0.26626,0.14261 -0.59952,0.34474 -0.74064,0.44918 -0.14107,0.10445 -0.3596,0.1899 -0.48564,0.1899 -0.12599,0 -0.40973,0.0968 -0.63054,0.21514 -0.22076,0.11833 -0.46392,0.21514 -0.5404,0.21514 -0.0764,0 -0.32887,0.0968 -0.56097,0.21514 -0.26903,0.13715 -0.63794,0.2159 -1.01775,0.21725 -0.32769,10e-4 -0.98303,0.0706 -1.45635,0.15436 -0.63469,0.11228 -1.07231,0.1265 -1.66732,0.0542 -0.44372,-0.0539 -1.39118,-0.14428 -2.105427,-0.20077 -1.251604,-0.099 -1.635684,-0.1996 -2.541385,-0.66571 -0.218812,-0.11259 -0.494299,-0.20472 -0.612203,-0.20472 -0.117903,0 -0.242514,-0.0456 -0.27691,-0.10124 -0.03456,-0.0557 -0.412417,-0.27572 -0.84004,-0.48898 -0.949085,-0.47336 -1.768105,-0.98171 -2.307855,-1.43249 -1.67228,-1.39652 -2.03908,-1.73633 -2.18499,-2.02417 -0.0911,-0.17966 -0.32111,-0.49226 -0.51122,-0.69467 -0.1901,-0.20241 -0.37562,-0.46483 -0.41229,-0.58316 -0.0366,-0.11833 -0.23012,-0.41691 -0.42998,-0.66352 -0.19987,-0.24661 -0.36339,-0.54322 -0.36339,-0.65914 0,-0.11592 -0.0707,-0.26947 -0.15718,-0.34122 -0.0865,-0.0718 -0.18901,-0.23499 -0.22787,-0.36277 -0.039,-0.12777 -0.14381,-0.31564 -0.23317,-0.41748 -0.0894,-0.10184 -0.20035,-0.36807 -0.24662,-0.59163 -0.0462,-0.22356 -0.21426,-0.74532 -0.37331,-1.15946 -0.15908,-0.41414 -0.33504,-1.06763 -0.39103,-1.45219 -0.056,-0.38457 -0.1525,-1.01385 -0.21446,-1.39841 -0.17986,-1.11555 0.0975,-4.93854 0.38225,-5.26828 0.0779,-0.0902 0.17181,-0.39716 0.20877,-0.68213 0.037,-0.28497 0.14031,-0.62248 0.22963,-0.75003 0.0894,-0.12755 0.16242,-0.35558 0.16242,-0.50674 0,-0.15116 0.0799,-0.38887 0.1775,-0.52825 0.25862,-0.3692 0.68307,-1.18631 0.68307,-1.31492 0,-0.0609 0.16942,-0.31742 0.37652,-0.57013 0.20706,-0.2527 0.37648,-0.51208 0.37648,-0.57639 0,-0.0643 0.48726,-0.67365 1.08284,-1.35408 1.03198,-1.17906 1.94109,-1.99697 3.00482,-2.70332 0.26622,-0.17679 0.54801,-0.38195 0.62619,-0.4559 0.0782,-0.074 0.229589,-0.13447 0.336434,-0.13447 0.106844,0 0.251987,-0.0695 0.322485,-0.15443 0.07046,-0.0849 0.266665,-0.18487 0.435999,-0.22206 0.169333,-0.0372 0.36554,-0.13711 0.435998,-0.22205 0.0705,-0.0849 0.232513,-0.15444 0.360011,-0.15444 0.127499,0 0.338789,-0.0749 0.4695,-0.16649 0.13075,-0.0916 0.54085,-0.21968 0.911392,-0.2847 0.370542,-0.065 0.789302,-0.19368 0.930582,-0.28591 0.373306,-0.24366 5.496939,-0.23983 5.982169,0.004 0.17751,0.0894 0.66685,0.21748 1.08744,0.28471 0.42058,0.0672 0.90464,0.19521 1.07568,0.28441 0.17104,0.0892 0.38847,0.16247 0.4832,0.16284 0.0947,3.6e-4 0.40937,0.12912 0.69921,0.28612 0.28984,0.157 0.67221,0.35985 0.84967,0.45077 0.17751,0.0909 0.38477,0.2268 0.46064,0.30195 0.0759,0.0752 0.30695,0.16835 0.51353,0.2071 l 0.37558,0.0705 5.03573,-5.05087 c 2.76963,-2.77797 5.30272,-5.2281 5.62911,-5.44472 0.52008,-0.34521 0.67417,-0.39386 1.24754,-0.39386 0.84252,0 1.05141,0.0864 1.66077,0.68716 0.4673,0.46071 1.15879,1.36466 1.15879,1.51486 0,0.0361 0.10335,0.20539 0.22958,0.37618 0.5154,0.69711 0.0394,1.83675 -1.29547,3.10099 -0.95437,0.90392 -4.15178,4.08078 -6.81359,6.76977 -2.6338,2.66071 -2.69275,2.74879 -2.23207,3.33445 0.11835,0.15043 0.21515,0.33366 0.21515,0.40718 0,0.0735 0.0675,0.18974 0.1501,0.25825 0.0825,0.0685 0.18068,0.2876 0.21804,0.48685 0.0374,0.19925 0.13929,0.38963 0.22642,0.42307 0.0871,0.0334 0.15872,0.17123 0.15913,0.3062 4e-4,0.13498 0.0969,0.39063 0.21442,0.56812 0.11758,0.17749 0.21405,0.45054 0.21446,0.60678 3.7e-4,0.15624 0.0964,0.49509 0.21349,0.75299 0.11701,0.25791 0.21381,0.62033 0.21511,0.80538 0,0.18506 0.0836,0.5239 0.18283,0.75299 0.23544,0.54352 0.28216,4.20597 0.0571,4.47717 -0.0761,0.0918 -0.18714,0.46918 -0.24666,0.83869 -0.0595,0.36951 -0.1786,0.77237 -0.26467,0.89525 -0.0861,0.12288 -0.15649,0.38057 -0.15649,0.57266 0,0.19208 -0.0937,0.53226 -0.20824,0.75594 -0.11457,0.22369 -0.23951,0.58053 -0.27768,0.79298 -0.0652,0.36237 -0.0272,0.4316 0.61163,1.11848 1.1816,1.27028 5.78088,5.78609 9.43584,9.26455 2.33888,2.22591 2.3092,2.21033 3.2201,1.69059 0.27679,-0.15792 0.57582,-0.34541 0.66457,-0.41666 0.0888,-0.0712 0.33802,-0.16114 0.55394,-0.19978 0.21593,-0.0386 0.45178,-0.14159 0.52414,-0.22877 0.0723,-0.0872 0.22492,-0.1585 0.33908,-0.1585 0.11416,0 0.38656,-0.0935 0.60537,-0.20778 0.21877,-0.11427 0.76084,-0.26002 1.20457,-0.32389 0.44372,-0.0639 1.12142,-0.16799 1.50599,-0.23138 0.39656,-0.0654 1.56055,-0.0972 2.68925,-0.0735 1.61279,0.0339 2.05119,0.0762 2.31273,0.22335 0.17751,0.0999 0.48019,0.18186 0.6727,0.18223 0.19251,3.6e-4 0.53065,0.0975 0.75141,0.2158 0.22077,0.11833 0.50512,0.21514 0.63184,0.21514 0.12677,0 0.29074,0.0726 0.36436,0.16135 0.0737,0.0888 0.18922,0.16136 0.25683,0.16136 0.0676,0 0.3035,0.0968 0.52426,0.21514 0.22077,0.11832 0.53171,0.21513 0.69096,0.21513 0.39656,0 0.97542,-0.41732 1.10934,-0.79978 0.0608,-0.17365 0.19467,-0.40869 0.29745,-0.52231 0.15689,-0.17341 0.18689,-0.42636 0.18677,-1.57548 l -1.2e-4,-1.36889 -0.48036,-0.9594 c -0.44961,-0.89805 -0.61549,-1.09353 -2.59375,-3.05701 -1.1624,-1.15369 -2.54358,-2.51316 -3.06934,-3.02105 -1.7779,-1.71755 -3.50645,-3.72142 -3.88931,-4.50884 -0.0719,-0.14791 -0.17689,-0.34153 -0.23328,-0.43028 -0.4345,-0.68399 -0.97474,-1.74068 -0.97474,-1.90661 0,-0.11097 -0.0473,-0.24909 -0.10522,-0.30695 -0.20755,-0.20758 -0.56402,-1.40788 -0.7003,-2.35815 -0.0763,-0.53247 -0.19259,-1.13723 -0.25829,-1.34392 -0.0832,-0.26171 -0.11945,-2.84436 -0.11945,-8.50823 0,-7.60885 -0.0122,-8.14337 -0.18824,-8.3021 -0.10355,-0.0933 -0.33346,-0.20083 -0.51097,-0.23895 -0.43091,-0.0925 -2.00427,-0.73972 -2.52788,-1.03981 -0.0888,-0.0509 -0.28236,-0.15178 -0.43031,-0.22426 -0.14791,-0.0725 -0.53516,-0.3141 -0.86053,-0.53693 -0.32542,-0.22283 -0.64697,-0.4052 -0.71458,-0.40528 -0.0677,-8e-5 -0.15083,-0.0728 -0.1849,-0.1615 -0.0341,-0.0887 -0.12726,-0.16135 -0.20719,-0.16135 -0.0799,0 -0.55337,-0.42543 -1.05214,-0.94539 -1.26083,-1.31432 -1.50087,-1.59839 -1.97334,-2.33549 -0.22751,-0.35498 -0.52841,-0.81744 -0.66867,-1.0277 -0.14022,-0.21025 -0.25496,-0.46885 -0.25496,-0.57466 0,-0.10582 -0.0968,-0.31547 -0.21515,-0.4659 -0.11831,-0.15043 -0.21515,-0.33976 -0.21515,-0.42074 0,-0.081 -0.0968,-0.32787 -0.21512,-0.54864 -0.11835,-0.22078 -0.21515,-0.52932 -0.21515,-0.68565 0,-0.15633 -0.0726,-0.3445 -0.16136,-0.41815 -0.0888,-0.0737 -0.16137,-0.25021 -0.16137,-0.39235 0,-0.14215 -0.0968,-0.53389 -0.21511,-0.87055 -0.19092,-0.54314 -0.21515,-0.88787 -0.21515,-3.0593 0,-1.83581 0.0386,-2.56233 0.15388,-2.90811 0.0846,-0.25351 0.18873,-0.65456 0.23138,-0.89121 0.0426,-0.23666 0.1392,-0.52709 0.21466,-0.64542 0.0754,-0.11832 0.17238,-0.40755 0.2154,-0.64272 0.043,-0.23517 0.14343,-0.49276 0.22312,-0.57243 0.0797,-0.0797 0.14514,-0.22609 0.14555,-0.3254 3.6e-4,-0.0993 0.0969,-0.32578 0.21442,-0.50328 0.11754,-0.17749 0.21406,-0.39991 0.21442,-0.49428 4.1e-4,-0.0944 0.0975,-0.25919 0.21585,-0.36627 0.11835,-0.10709 0.21515,-0.24007 0.21515,-0.29553 0,-0.0554 0.0968,-0.2239 0.21515,-0.37433 0.11831,-0.15042 0.21511,-0.34339 0.21511,-0.42881 0,-0.33061 1.80197,-2.30617 3.06834,-3.36395 0.394,-0.32911 1.51558,-1.08367 1.8799,-1.26472 0.14791,-0.0735 0.34152,-0.17416 0.43027,-0.22365 0.62233,-0.34712 1.09008,-0.55699 1.2414,-0.55699 0.0973,0 0.29992,-0.0968 0.45035,-0.21514 0.15043,-0.11832 0.36619,-0.21514 0.4795,-0.21514 0.11327,0 0.34123,-0.0699 0.5065,-0.15541 0.1653,-0.0855 0.56227,-0.18645 0.88212,-0.22437 0.31988,-0.0379 0.81463,-0.14233 1.09942,-0.23202 0.65469,-0.20615 4.64421,-0.23579 5.01516,-0.0373 0.12852,0.0688 0.52853,0.17255 0.88891,0.23058 0.36038,0.058 0.75576,0.17594 0.87863,0.262 0.1229,0.0861 0.34765,0.15649 0.49946,0.15649 0.15181,0 0.46592,0.0968 0.69799,0.21514 0.2321,0.11832 0.4869,0.21514 0.56618,0.21514 0.12363,0 0.6213,0.22933 1.20875,0.55698 0.0887,0.0495 0.28236,0.14795 0.43026,0.21878 0.14791,0.0708 0.35505,0.21521 0.46035,0.32085 0.1053,0.10563 0.46654,0.39828 0.80276,0.65031 0.76345,0.57231 1.34178,1.13526 2.01786,1.96423 0.28951,0.35499 0.68217,0.81485 0.8726,1.02192 0.19048,0.20707 0.55041,0.76374 0.79988,1.23705 0.2495,0.47331 0.51979,0.93698 0.60069,1.03039 0.0809,0.0934 0.14856,0.21441 0.15043,0.26892 0,0.0545 0.12242,0.34113 0.26793,0.63695 0.14551,0.29582 0.26503,0.63708 0.26556,0.75836 0,0.12129 0.0522,0.27168 0.11469,0.33422 0.0625,0.0625 0.18568,0.39895 0.2737,0.74761 0.088,0.34865 0.20605,0.80334 0.26232,1.01041 0.0563,0.20707 0.10404,1.69721 0.10611,3.31141 0.004,2.34576 -0.0276,3.00437 -0.15287,3.28088 -0.0862,0.19028 -0.1897,0.50977 -0.23015,0.70998 -0.0407,0.20021 -0.16401,0.56326 -0.2746,0.80677 -0.11058,0.24352 -0.2021,0.59722 -0.2034,0.78601 0,0.18879 -0.0515,0.37363 -0.11156,0.41075 -0.0601,0.0371 -0.18238,0.2215 -0.27183,0.40973 -0.2341,0.49276 -0.41969,0.79701 -0.62354,1.02229 -0.0983,0.1086 -0.17873,0.24981 -0.17873,0.31379 0,0.10742 -0.64956,0.98083 -1.06072,1.42621 -0.097,0.10505 -0.36993,0.42265 -0.60659,0.70578 -0.23666,0.28313 -0.4954,0.56696 -0.57501,0.63074 -0.0796,0.0638 -0.37505,0.32168 -0.65655,0.57312 -0.28155,0.25144 -0.56143,0.45717 -0.62201,0.45717 -0.0606,0 -0.16945,0.0715 -0.2419,0.15878 -0.21316,0.25683 -1.89946,1.34522 -2.28411,1.47424 -0.19442,0.0652 -0.4299,0.18432 -0.52333,0.26468 -0.0934,0.0804 -0.23861,0.14645 -0.32269,0.14684 -0.0841,3.9e-4 -0.29813,0.0969 -0.4756,0.21443 -0.1775,0.11754 -0.48242,0.21404 -0.67766,0.21443 -0.19523,3.9e-4 -0.48568,0.0676 -0.64542,0.14934 -0.15977,0.0818 -0.49637,0.18284 -0.74799,0.22466 -0.34481,0.0573 -0.47182,0.13329 -0.51564,0.30853 -0.0321,0.12789 -0.044,3.8872 -0.0264,8.35404 0.0285,7.2933 0.0495,8.14895 0.20702,8.39045 0.0965,0.14791 0.20352,0.52654 0.23788,0.8414 0.0554,0.50775 0.23735,0.96801 0.78348,1.98186 0.0875,0.16245 0.30204,0.45185 0.47674,0.6431 0.17466,0.19126 0.34818,0.44559 0.38554,0.56519 0.12616,0.40365 1.73286,2.16262 4.66401,5.10602 1.03536,1.03968 2.09893,2.15612 2.36348,2.48097 0.26455,0.32485 0.63623,0.75508 0.82597,0.95608 0.18974,0.20099 0.37428,0.48214 0.4101,0.62477 0.0358,0.14264 0.23288,0.49806 0.43795,0.78983 0.20507,0.29177 0.37286,0.61642 0.37286,0.72144 0,0.10502 0.0968,0.37158 0.21515,0.59235 0.11835,0.22077 0.21532,0.48629 0.21556,0.59004 2.1e-4,0.10375 0.097,0.34713 0.21512,0.54084 0.19933,0.32692 0.21474,0.5432 0.21474,3.01355 0,2.45583 -0.0167,2.69234 -0.21515,3.06275 -0.11831,0.22077 -0.21511,0.52277 -0.21511,0.6711 0,0.14834 -0.0968,0.45034 -0.21516,0.67111 -0.11831,0.22077 -0.21515,0.48558 -0.21515,0.58847 0,0.10288 -0.16576,0.51506 -0.36835,0.91594 -0.58073,1.1491 -0.65493,2.05647 -0.2145,2.62304 0.18633,0.2397 0.58285,1.05835 0.58285,1.20336 0,0.073 0.0968,0.31338 0.21515,0.53415 0.11835,0.22077 0.21516,0.49857 0.21516,0.61733 0,0.11875 0.0968,0.39655 0.21511,0.61732 0.15604,0.29108 0.21552,0.60879 0.21645,1.15598 0,0.41503 0.0727,1.02082 0.16007,1.34622 0.0873,0.3254 0.1588,0.95468 0.1588,1.39841 0,0.44372 -0.0715,1.07301 -0.1588,1.39841 -0.0873,0.3254 -0.15868,0.88207 -0.15852,1.23705 2.8e-4,0.651 -0.28691,1.77839 -0.66067,2.59346 -0.11152,0.24313 -0.20275,0.51891 -0.20275,0.61283 0,0.17802 -0.47373,1.12852 -0.65103,1.30626 -0.0561,0.0562 -0.10192,0.18498 -0.10192,0.28616 0,0.10118 -0.19365,0.42892 -0.43031,0.72831 -0.23666,0.29939 -0.43027,0.5732 -0.43027,0.60847 0,0.0353 -0.13311,0.24238 -0.29581,0.46024 -0.16271,0.21786 -0.34424,0.46117 -0.40339,0.54069 -0.5091,0.68423 -2.97279,2.97293 -3.48953,3.24169 -0.17316,0.0901 -0.54395,0.29795 -0.82403,0.462 -0.28004,0.16405 -0.61687,0.3253 -0.74852,0.35834 -0.25593,0.0642 -1.1746,0.51122 -1.37739,0.67017 -0.0673,0.0527 -0.36433,0.12312 -0.66014,0.15646 -0.29582,0.0333 -0.68307,0.13651 -0.86057,0.22926 -0.17747,0.0928 -0.48158,0.16895 -0.67575,0.16931 -0.19418,3.6e-4 -0.53305,0.0798 -0.753,0.17655 -0.45018,0.19799 -3.18566,0.30571 -3.94972,0.15554 z m 3.33467,-6.58114 c 0.23662,-0.0622 0.6531,-0.16997 0.92546,-0.23947 0.27235,-0.0695 0.56305,-0.18298 0.64603,-0.25218 0.0829,-0.0692 0.29577,-0.16041 0.47291,-0.20269 0.17718,-0.0423 0.39473,-0.13734 0.48348,-0.21124 0.0887,-0.0739 0.42759,-0.28426 0.75296,-0.46747 0.32541,-0.18322 0.82406,-0.58822 1.10817,-0.90001 1.14077,-1.25206 1.36597,-1.53295 1.36597,-1.70399 0,-0.0982 0.0859,-0.29394 0.19096,-0.43504 0.37587,-0.50488 0.66965,-1.25563 0.67323,-1.72051 0,-0.25975 0.0972,-0.6659 0.21149,-0.90256 0.29309,-0.60677 0.29309,-2.04464 0,-2.87853 -0.11831,-0.33667 -0.21515,-0.81375 -0.21515,-1.06019 0,-0.38943 -0.23638,-1.07438 -0.5526,-1.60113 -0.0533,-0.0887 -0.15661,-0.28237 -0.22967,-0.43027 -0.2728,-0.5523 -0.57866,-0.93585 -1.3726,-1.72112 -0.9418,-0.93159 -1.20976,-1.12924 -2.09412,-1.54465 -0.35497,-0.16676 -0.74222,-0.35614 -0.86057,-0.42086 -0.11831,-0.0647 -0.40876,-0.15298 -0.64542,-0.19611 -0.23666,-0.0431 -0.6481,-0.1604 -0.91432,-0.26058 -0.90119,-0.33909 -3.80543,-0.0306 -4.45691,0.47347 -0.0631,0.0489 -0.2739,0.14235 -0.46832,0.20777 -0.91424,0.30761 -3.12009,2.11675 -3.34853,2.74633 -0.0244,0.0677 -0.19682,0.34111 -0.38278,0.60764 -0.32757,0.46942 -0.53004,0.86254 -1.02511,1.99058 -0.21576,0.49162 -0.23695,0.72275 -0.24666,2.68924 -0.009,1.81519 0.0167,2.19343 0.16405,2.42032 0.096,0.14791 0.20747,0.44873 0.24759,0.66848 0.0402,0.21976 0.14055,0.45562 0.22312,0.52413 0.0825,0.0685 0.15011,0.18543 0.15011,0.25981 0,0.0744 0.21783,0.41577 0.48405,0.75862 0.26626,0.34286 0.48406,0.66017 0.48406,0.70514 0,0.045 0.25751,0.33904 0.57219,0.6535 0.6986,0.69808 1.9848,1.57513 2.52513,1.7219 0.2193,0.0596 0.47515,0.17609 0.56853,0.25896 0.0934,0.0829 0.26285,0.15194 0.37648,0.15349 0.11368,0.002 0.54553,0.0955 0.95969,0.20867 0.84809,0.23184 2.52842,0.2842 3.2271,0.10055 z m -34.52819,-31.13011 c 0.23569,-0.0839 0.67059,-0.15504 0.96641,-0.15803 0.34919,-0.004 0.65098,-0.0804 0.86053,-0.21915 0.1775,-0.11755 0.3877,-0.21404 0.4671,-0.21443 0.0794,-3.9e-4 0.26747,-0.0975 0.4179,-0.21585 0.15043,-0.11833 0.36144,-0.21514 0.46889,-0.21514 0.1075,0 0.74596,-0.54457 1.41883,-1.21016 1.14232,-1.12999 1.799,-2.01947 1.799,-2.43683 0,-0.0977 0.0847,-0.29734 0.18824,-0.44362 0.38379,-0.54223 0.49747,-1.26935 0.4956,-3.17035 0,-1.8852 -0.17206,-3.02836 -0.5261,-3.53381 -0.0868,-0.12387 -0.15786,-0.32337 -0.15803,-0.44332 0,-0.41863 -1.03389,-1.82274 -2.00297,-2.72167 -1.04365,-0.9681 -1.92199,-1.47044 -3.34297,-1.91185 -0.69502,-0.2159 -1.0606,-0.2601 -2.12986,-0.25753 -0.83878,0.002 -1.44155,0.0569 -1.72114,0.15677 -0.23662,0.0845 -0.648105,0.18512 -0.914322,0.22357 -0.266259,0.0385 -0.556667,0.13089 -0.645419,0.20539 -0.08875,0.0745 -0.282358,0.17113 -0.430307,0.21471 -0.147907,0.0436 -0.341513,0.14028 -0.430265,0.21489 -0.08875,0.0746 -0.312403,0.2121 -0.496983,0.30553 -0.599193,0.30326 -1.420369,1.16494 -2.677096,2.80923 -0.08831,0.11557 -0.160592,0.27754 -0.160592,0.35993 0,0.0824 -0.178766,0.5203 -0.397256,0.97314 l -0.39729,0.82334 -0.0449,2.28104 c -0.0424,2.15153 -0.0321,2.30766 0.18214,2.7501 0.1249,0.25798 0.22706,0.54406 0.22706,0.63573 0,0.0917 0.0968,0.28975 0.21516,0.44018 0.11831,0.15042 0.215111,0.36725 0.215111,0.48184 0,0.11458 0.124855,0.34898 0.277438,0.52088 0.152583,0.1719 0.388675,0.48368 0.524629,0.69284 0.456408,0.70215 1.897796,2.04003 2.19788,2.04003 0.05733,0 0.168195,0.0612 0.246377,0.13602 0.294515,0.28184 1.305312,0.72454 1.654265,0.72454 0.199582,0 0.57025,0.069 0.82374,0.15328 0.25353,0.0843 0.58195,0.17703 0.72986,0.20606 0.42453,0.0833 1.62926,-0.0299 2.09937,-0.1973 z m 34.63666,-35.64377 c 0.47381,-0.0572 1.03047,-0.188 1.23705,-0.29059 0.20657,-0.10259 0.55459,-0.27647 0.7734,-0.3864 0.21877,-0.10993 0.44629,-0.19988 0.50556,-0.19988 0.33591,0 1.85792,-1.30741 2.25407,-1.93626 0.0932,-0.14791 0.3285,-0.46753 0.52292,-0.71028 0.19442,-0.24275 0.35351,-0.50239 0.35351,-0.57699 0,-0.0746 0.0898,-0.31164 0.19962,-0.52677 0.44409,-0.87014 0.66091,-1.43417 0.66091,-1.71911 0,-0.16517 0.077,-0.55958 0.17112,-0.87646 0.2835,-0.95466 0.004,-3.81024 -0.43465,-4.4361 -0.0917,-0.13091 -0.16674,-0.32658 -0.16674,-0.43481 0,-0.22461 -0.39802,-0.98823 -0.65932,-1.26491 -0.0964,-0.10207 -0.3679,-0.44555 -0.60338,-0.7633 -0.58964,-0.79571 -1.24002,-1.44604 -1.66296,-1.66277 -0.19536,-0.10012 -0.37941,-0.21873 -0.40901,-0.26358 -0.0912,-0.13835 -1.09747,-0.64142 -1.28291,-0.64142 -0.0964,0 -0.27069,-0.0665 -0.38737,-0.14777 -0.24719,-0.17216 -1.79908,-0.43052 -2.57871,-0.42932 -0.97502,0.002 -2.87306,0.25789 -3.10333,0.4192 -0.12401,0.0868 -0.29936,0.1587 -0.38974,0.15969 -0.37627,0.004 -1.90584,0.94797 -2.65428,1.63786 -0.59611,0.54945 -1.50177,1.89198 -1.6515,2.44816 -0.0624,0.23156 -0.16047,0.45013 -0.21804,0.4857 -0.0575,0.0356 -0.10465,0.17145 -0.10465,0.30195 0,0.1305 -0.10217,0.42797 -0.22711,0.66102 -0.20552,0.38349 -0.2282,0.60816 -0.23877,2.36495 -0.0106,1.79545 0.006,1.97912 0.2271,2.44625 0.13132,0.27778 0.23878,0.58924 0.23878,0.69213 0,0.1642 0.31248,0.94353 0.51857,1.29338 0.72047,1.22298 1.89292,2.49677 2.92729,3.18032 1.22038,0.80649 1.79409,1.03696 2.88367,1.15845 0.56464,0.063 1.05365,0.14202 1.08663,0.17568 0.0637,0.065 0.80312,0.0122 2.21227,-0.15802 z"
       id="path1-44"
       inkscape:export-filename="AION.svg"
       inkscape:export-xdpi="96"
       inkscape:export-ydpi="96"
       sodipodi:nodetypes="cssscssssssssssscscssssssssssssssssssssscssssssssssssssssssssssssssssssssssssssscssssssscssssssssssssssssscssssssssssssssssssssssssssssscsssssscsssssssssssssssssssssssssssssssssssssssssssssssssssssssssscscssscscscsssssssssssssssssscssssssssssssssssssssssssscssssssssssssssssssssccssssssssscsssssssssssscsssssssssssscssscssssssscscsssssssssssscsssssssssssssssssssssssssssssssscssssssscsssssss" /></g></svg>
