<?xml version="1.0" encoding="UTF-8" standalone="no"?>
<!-- Created with Inkscape (http://www.inkscape.org/) -->

<svg
   width="64.181267mm"
   height="97.0298mm"
   viewBox="0 0 64.181267 97.0298"
   version="1.1"
   id="svg1"
   xml:space="preserve"
   xmlns:inkscape="http://www.inkscape.org/namespaces/inkscape"
   xmlns:sodipodi="http://sodipodi.sourceforge.net/DTD/sodipodi-0.dtd"
   xmlns="http://www.w3.org/2000/svg"
   xmlns:svg="http://www.w3.org/2000/svg"><sodipodi:namedview
     id="namedview1"
     pagecolor="#ffffff"
     bordercolor="#000000"
     borderopacity="0.25"
     inkscape:showpageshadow="2"
     inkscape:pageopacity="0.0"
     inkscape:pagecheckerboard="0"
     inkscape:deskcolor="#d1d1d1"
     inkscape:document-units="mm" /><defs
     id="defs1" /><g
     inkscape:label="Capa 1"
     inkscape:groupmode="layer"
     id="layer1"
     transform="translate(55.637266,-646.19597)"><path
       style="fill:#000000;fill-opacity:1;stroke-width:0.406563"
       d="m -8.2882491,743.15575 c -0.236661,-0.0465 -0.566546,-0.14011 -0.733115,-0.208 -0.166528,-0.0679 -0.439617,-0.12343 -0.606755,-0.12343 -0.167178,0 -0.5149929,-0.0958 -0.7729169,-0.21277 -0.257883,-0.11703 -0.574961,-0.21384 -0.704574,-0.21515 -0.129612,-10e-4 -0.647045,-0.19598 -1.149801,-0.43264 -0.502796,-0.23665 -0.968392,-0.43028 -1.034743,-0.43028 -0.06631,0 -0.342448,-0.16942 -0.613667,-0.37649 -0.271177,-0.20707 -0.531337,-0.37649 -0.578132,-0.37649 -0.129491,0 -1.692319,-1.2477 -2.341682,-1.86951 -0.316387,-0.30295 -0.828291,-0.88981 -1.137521,-1.30415 -0.30927,-0.41433 -0.64542,-0.83645 -0.74698,-0.93803 -0.1016,-0.10158 -0.23585,-0.33136 -0.29834,-0.51061 -0.0625,-0.17926 -0.15392,-0.32591 -0.20324,-0.32591 -0.0493,0 -0.31602,-0.47197 -0.59272,-1.04881 -0.27667,-0.57685 -0.56866,-1.17425 -0.64884,-1.32756 -0.0801,-0.15331 -0.17889,-0.49215 -0.21938,-0.75299 -0.0407,-0.26083 -0.13917,-0.56972 -0.21914,-0.68642 -0.08,-0.1167 -0.14762,-0.38293 -0.15022,-0.59163 -0.004,-0.2087 -0.0814,-0.57308 -0.17519,-0.80973 -0.25642,-0.64729 -0.33302,-3.8893 -0.10628,-4.50043 0.0914,-0.24628 0.19727,-0.68982 0.2354,-0.98563 0.0382,-0.29582 0.13478,-0.73148 0.21487,-0.96813 0.08,-0.23666 0.17507,-0.65625 0.21117,-0.93244 0.0362,-0.27619 0.13583,-0.56045 0.22166,-0.6317 0.0859,-0.0712 0.15608,-0.17826 0.15608,-0.23782 0,-0.16004 0.97022,-2.11293 1.08495,-2.18384 0.28472,-0.17596 -0.0815,-0.61859 -2.22878,-2.69364 -3.08085,-2.97729 -3.00547,-2.90601 -3.85747,-3.64726 -0.87492,-0.76122 -2.93075,-2.73915 -4.41772,-4.25038 -0.74348,-0.75558 -1.13207,-1.07433 -1.3097,-1.07433 -0.13892,0 -0.50637,0.18153 -0.81654,0.40339 -0.31017,0.22186 -0.63973,0.45179 -0.7323,0.51096 -0.0926,0.0592 -0.35713,0.23218 -0.58781,0.38447 -0.23072,0.1523 -0.63733,0.39359 -0.90354,0.53621 -0.26626,0.14261 -0.59952,0.34474 -0.74064,0.44918 -0.14108,0.10445 -0.35961,0.1899 -0.48564,0.1899 -0.12599,0 -0.40973,0.0968 -0.63054,0.21514 -0.22076,0.11833 -0.46393,0.21514 -0.5404,0.21514 -0.0764,0 -0.32887,0.0968 -0.56098,0.21514 -0.26902,0.13715 -0.63794,0.2159 -1.01775,0.21725 -0.32769,0.001 -0.98303,0.0706 -1.45635,0.15436 -0.63468,0.11228 -1.07231,0.1265 -1.66731,0.0542 -0.44373,-0.0539 -1.39118,-0.14428 -2.10543,-0.20077 -1.2516,-0.099 -1.63568,-0.1996 -2.54139,-0.66571 -0.21881,-0.11259 -0.49429,-0.20472 -0.6122,-0.20472 -0.1179,0 -0.24251,-0.0456 -0.27691,-0.10124 -0.0346,-0.0557 -0.41242,-0.27572 -0.84004,-0.48898 -0.94908,-0.47336 -1.7681,-0.98171 -2.30785,-1.43249 -1.67228,-1.39652 -2.03908,-1.73633 -2.18499,-2.02417 -0.0911,-0.17966 -0.32111,-0.49226 -0.51122,-0.69467 -0.1901,-0.20241 -0.37562,-0.46483 -0.41229,-0.58316 -0.0366,-0.11833 -0.23012,-0.41691 -0.42998,-0.66352 -0.19987,-0.24661 -0.36339,-0.54322 -0.36339,-0.65914 0,-0.11592 -0.0707,-0.26947 -0.15718,-0.34122 -0.0865,-0.0718 -0.18901,-0.23499 -0.22787,-0.36277 -0.039,-0.12777 -0.14381,-0.31564 -0.23317,-0.41748 -0.0894,-0.10184 -0.20035,-0.36807 -0.24662,-0.59163 -0.0462,-0.22356 -0.21426,-0.74532 -0.37331,-1.15946 -0.15908,-0.41414 -0.33504,-1.06763 -0.39103,-1.45219 -0.056,-0.38457 -0.1525,-1.01385 -0.21446,-1.39841 -0.17986,-1.11555 0.0975,-4.93854 0.38225,-5.26828 0.0779,-0.0902 0.17181,-0.39716 0.20877,-0.68213 0.037,-0.28497 0.14031,-0.62248 0.22963,-0.75003 0.0894,-0.12755 0.16242,-0.35558 0.16242,-0.50674 0,-0.15116 0.0799,-0.38887 0.1775,-0.52825 0.25862,-0.3692 0.68307,-1.18631 0.68307,-1.31492 0,-0.0609 0.16942,-0.31742 0.37652,-0.57013 0.20706,-0.2527 0.37648,-0.51208 0.37648,-0.57639 0,-0.0643 0.48726,-0.67365 1.08284,-1.35408 1.03198,-1.17906 1.94109,-1.99697 3.00482,-2.70332 0.26622,-0.17679 0.54801,-0.38195 0.62619,-0.4559 0.0782,-0.074 0.22959,-0.13447 0.33643,-0.13447 0.10684,0 0.25199,-0.0695 0.32249,-0.15443 0.0705,-0.0849 0.26666,-0.18487 0.43599,-0.22206 0.16934,-0.0372 0.36554,-0.13711 0.436,-0.22205 0.0705,-0.0849 0.23252,-0.15444 0.36001,-0.15444 0.1275,0 0.33879,-0.0749 0.4695,-0.16649 0.13075,-0.0916 0.54085,-0.21968 0.9114,-0.2847 0.37054,-0.065 0.7893,-0.19368 0.93058,-0.28591 0.3733,-0.24366 5.49693,-0.23983 5.98217,0.004 0.1775,0.0894 0.66684,0.21748 1.08743,0.28471 0.42059,0.0672 0.90464,0.19521 1.07569,0.28441 0.17104,0.0892 0.38847,0.16247 0.4832,0.16284 0.0947,3.6e-4 0.40936,0.12912 0.6992,0.28612 0.28984,0.157 0.67221,0.35985 0.84968,0.45077 0.1775,0.0909 0.38477,0.2268 0.46064,0.30195 0.0759,0.0752 0.30695,0.16835 0.51353,0.2071 l 0.37558,0.0705 5.03573,-5.05087 c 2.76963,-2.77797 5.30272,-5.2281 5.62911,-5.44472 0.52008,-0.34521 0.67417,-0.39386 1.24754,-0.39386 0.84252,0 1.05142,0.0864 1.66077,0.68716 0.46731,0.46071 1.158788,1.36466 1.158788,1.51486 0,0.0361 0.103348,0.20539 0.229586,0.37618 0.5154,0.69711 0.03944,1.83675 -1.295474,3.10099 -0.95436,0.90392 -4.15178,4.08078 -6.81359,6.76977 -2.6338,2.66071 -2.69275,2.74879 -2.23207,3.33445 0.11835,0.15043 0.21515,0.33366 0.21515,0.40718 0,0.0735 0.0675,0.18974 0.15011,0.25825 0.0825,0.0685 0.18067,0.2876 0.21804,0.48685 0.0374,0.19925 0.13928,0.38963 0.22641,0.42307 0.0871,0.0334 0.15872,0.17123 0.15913,0.3062 4.1e-4,0.13498 0.0969,0.39063 0.21442,0.56812 0.11758,0.17749 0.21406,0.45054 0.21446,0.60678 3.7e-4,0.15624 0.0964,0.49509 0.21349,0.75299 0.11701,0.25791 0.21381,0.62033 0.21511,0.80538 0,0.18506 0.0836,0.5239 0.18283,0.75299 0.23544,0.54352 0.28216,4.20597 0.0571,4.47717 -0.0761,0.0918 -0.18714,0.46918 -0.24666,0.83869 -0.0595,0.36951 -0.1786,0.77237 -0.26467,0.89525 -0.0861,0.12288 -0.15649,0.38057 -0.15649,0.57266 0,0.19208 -0.0937,0.53226 -0.20824,0.75594 -0.11457,0.22369 -0.23951,0.58053 -0.27768,0.79298 -0.0652,0.36237 -0.0272,0.4316 0.61163,1.11848 1.1816,1.27028 5.78088,5.78609 9.435842,9.26455 2.338876,2.22591 2.309197,2.21033 3.220102,1.69059 0.276788,-0.15792 0.575815,-0.34541 0.664568,-0.41666 0.08875,-0.0712 0.338016,-0.16114 0.553942,-0.19978 0.215926,-0.0386 0.451773,-0.14159 0.524141,-0.22877 0.07233,-0.0872 0.224911,-0.1585 0.339074,-0.1585 0.114163,0 0.38656,-0.0935 0.605372,-0.20778 0.218772,-0.11427 0.760842,-0.26002 1.2045649,-0.32389 0.443723,-0.0639 1.121423,-0.16799 1.505991,-0.23138 0.396562,-0.0654 1.560552,-0.0972 2.689252,-0.0735 1.612795,0.0339 2.051192,0.0762 2.312734,0.22335 0.177506,0.0999 0.480192,0.18186 0.6727,0.18223 0.192507,3.6e-4 0.530646,0.0975 0.75141,0.2158 0.220763,0.11833 0.505114,0.21514 0.631839,0.21514 0.126767,0 0.29073404,0.0726 0.36436204,0.16135 0.07367,0.0888 0.189215,0.16136 0.256826,0.16136 0.06757,0 0.303499,0.0968 0.524263,0.21514 0.220764,0.11832 0.531703,0.21513 0.690954,0.21513 0.396562,0 0.97542596,-0.41732 1.10934796,-0.79978 0.06082,-0.17365 0.194662,-0.40869 0.297442,-0.52231 0.156892,-0.17341 0.186897,-0.42636 0.186775,-1.57548 l -1.22e-4,-1.36889 -0.480355,-0.9594 c -0.449618,-0.89805 -0.615495,-1.09353 -2.59374996,-3.05701 -1.16240504,-1.15369 -2.54358104,-2.51316 -3.06934804,-3.02105 -1.7779,-1.71755 -3.506444,-3.72142 -3.889304,-4.50884 -0.07192,-0.14791 -0.176896,-0.34153 -0.233286,-0.43028 -0.434494,-0.68399 -0.974735,-1.74068 -0.974735,-1.90661 0,-0.11097 -0.04732,-0.24909 -0.105219,-0.30695 -0.20755,-0.20758 -0.564025,-1.40788 -0.700305,-2.35815 -0.07635,-0.53247 -0.1925889,-1.13723 -0.2582889,-1.34392 -0.08318,-0.26171 -0.119448,-2.84436 -0.119448,-8.50823 0,-7.60885 -0.0122,-8.14337 -0.188239,-8.3021 -0.103552,-0.0933 -0.333463,-0.20083 -0.510969,-0.23895 -0.430916,-0.0925 -2.004274,-0.73972 -2.527887,-1.03981 -0.08875,-0.0509 -0.282358,-0.15178 -0.430306,-0.22426 -0.147908,-0.0725 -0.535159,-0.3141 -0.860532,-0.53693 -0.325413,-0.22283 -0.646963,-0.4052 -0.714575,-0.40528 -0.06765,-8e-5 -0.150835,-0.0728 -0.184905,-0.1615 -0.03415,-0.0887 -0.127254,-0.16135 -0.207184,-0.16135 -0.07989,0 -0.553373,-0.42543 -1.052145,-0.94539 -1.260829,-1.31432 -1.500869,-1.59839 -1.973339,-2.33549 -0.22751,-0.35498 -0.52841,-0.81744 -0.66867,-1.0277 -0.14022,-0.21025 -0.25496,-0.46885 -0.25496,-0.57466 0,-0.10582 -0.0968,-0.31547 -0.21515,-0.4659 -0.11831,-0.15043 -0.21515,-0.33976 -0.21515,-0.42074 0,-0.081 -0.0968,-0.32787 -0.21511,-0.54864 -0.11835,-0.22078 -0.21516,-0.52932 -0.21516,-0.68565 0,-0.15633 -0.0726,-0.3445 -0.16136,-0.41815 -0.0888,-0.0737 -0.16137,-0.25021 -0.16137,-0.39235 0,-0.14215 -0.0968,-0.53389 -0.21511,-0.87055 -0.19092,-0.54314 -0.21515,-0.88787 -0.21515,-3.0593 0,-1.83581 0.0386,-2.56233 0.15388,-2.90811 0.0846,-0.25351 0.18873,-0.65456 0.23138,-0.89121 0.0426,-0.23666 0.1392,-0.52709 0.21466,-0.64542 0.0754,-0.11832 0.17238,-0.40755 0.2154,-0.64272 0.043,-0.23517 0.14343,-0.49276 0.22312,-0.57243 0.0797,-0.0797 0.14514,-0.22609 0.14555,-0.3254 3.7e-4,-0.0993 0.0969,-0.32578 0.21442,-0.50328 0.11754,-0.17749 0.21406,-0.39991 0.21442,-0.49428 4.1e-4,-0.0944 0.0975,-0.25919 0.21585,-0.36627 0.11835,-0.10709 0.21515,-0.24007 0.21515,-0.29553 0,-0.0554 0.0968,-0.2239 0.21515,-0.37433 0.11831,-0.15042 0.21512,-0.34339 0.21512,-0.42881 0,-0.33061 1.801964,-2.30617 3.068327,-3.36395 0.394,-0.32911 1.515586,-1.08367 1.879907,-1.26472 0.147908,-0.0735 0.341513,-0.17416 0.430266,-0.22365 0.622326,-0.34712 1.090077,-0.55699 1.241399,-0.55699 0.09729,0 0.299922,-0.0968 0.45035,-0.21514 0.150429,-0.11832 0.366192,-0.21514 0.479501,-0.21514 0.113268,0 0.341228,-0.0699 0.506496,-0.15541 0.165309,-0.0855 0.562277,-0.18645 0.88212,-0.22437 0.3198839,-0.0379 0.8146299,-0.14233 1.0994279,-0.23202 0.654688,-0.20615 4.64421,-0.23579 5.015159,-0.0373 0.128514,0.0688 0.528532,0.17255 0.888909,0.23058 0.360378,0.058 0.75576,0.17594 0.878624,0.262 0.122904,0.0861 0.347652,0.15649 0.499462,0.15649 0.151811,0 0.465922,0.0968 0.69798804,0.21514 0.232107,0.11832 0.4869,0.21514 0.56618,0.21514 0.123635,0 0.621309,0.22933 1.208752,0.55698 0.08871,0.0495 0.28235796,0.14795 0.43026596,0.21878 0.147908,0.0708 0.355051,0.21521 0.460351,0.32085 0.1053,0.10563 0.466531,0.39828 0.802759,0.65031 0.763444,0.57231 1.34178,1.13526 2.017854,1.96423 0.289514,0.35499 0.682172,0.81485 0.872606,1.02192 0.190475,0.20707 0.550405,0.76374 0.799873,1.23705 0.249507,0.47331 0.51979,0.93698 0.600696,1.03039 0.08087,0.0934 0.148559,0.21441 0.150429,0.26892 0,0.0545 0.122416,0.34113 0.267925,0.63695 0.145509,0.29582 0.265038,0.63708 0.265567,0.75836 0,0.12129 0.05216,0.27168 0.114691,0.33422 0.06253,0.0625 0.185678,0.39895 0.273699,0.74761 0.08802,0.34865 0.206046,0.80334 0.262314,1.01041 0.05631,0.20707 0.10404,1.69721 0.106113,3.31141 0.0041,2.34576 -0.02765,3.00437 -0.152868,3.28088 -0.08615,0.19028 -0.189702,0.50977 -0.230155,0.70998 -0.04066,0.20021 -0.164008,0.56326 -0.274593,0.80677 -0.110585,0.24352 -0.202102,0.59722 -0.203403,0.78601 0,0.18879 -0.05151,0.37363 -0.111561,0.41075 -0.06009,0.0371 -0.182384,0.2215 -0.271828,0.40973 -0.234099,0.49276 -0.419695,0.79701 -0.623546,1.02229 -0.09831,0.1086 -0.178725,0.24981 -0.178725,0.31379 0,0.10742 -0.649566,0.98083 -1.060723,1.42621 -0.09697,0.10505 -0.369932,0.42265 -0.606592,0.70578 -0.236661,0.28313 -0.495397,0.56696 -0.575002,0.63074 -0.07961,0.0638 -0.375055,0.32168 -0.656559,0.57312 -0.281545,0.25144 -0.561423,0.45717 -0.622001,0.45717 -0.06058,0 -0.169456,0.0715 -0.241905,0.15878 -0.213161,0.25683 -1.89946296,1.34522 -2.28411196,1.47424 -0.194419,0.0652 -0.4299,0.18432 -0.523328,0.26468 -0.09339,0.0804 -0.238612,0.14645 -0.322689,0.14684 -0.08412,3.9e-4 -0.29813304,0.0969 -0.47559804,0.21443 -0.177505,0.11754 -0.482427,0.21404 -0.677659,0.21443 -0.195232,3.9e-4 -0.48568,0.0676 -0.645419,0.14934 -0.159779,0.0818 -0.496373,0.18284 -0.747995,0.22466 -0.344806,0.0573 -0.471816,0.13329 -0.515644,0.30853 -0.03212,0.12789 -0.04395,3.8872 -0.02643,8.35404 0.02846,7.2933 0.04948,8.14895 0.207022,8.39045 0.09648,0.14791 0.203525,0.52654 0.23788,0.8414 0.05537,0.50775 0.237351,0.96801 0.783487,1.98186 0.08753,0.16245 0.302036,0.45185 0.476736,0.6431 0.17466,0.19126 0.348181,0.44559 0.385544,0.56519 0.126157,0.40365 1.73285304,2.16262 4.66401,5.10602 1.035354,1.03968 2.098923,2.15612 2.363474,2.48097 0.26455,0.32485 0.63623,0.75508 0.825973,0.95608 0.189743,0.20099 0.374282,0.48214 0.4101,0.62477 0.03578,0.14264 0.23288,0.49806 0.43795,0.78983 0.20507,0.29177 0.372859,0.61642 0.372859,0.72144 0,0.10502 0.09684,0.37158 0.215153,0.59235 0.118351,0.22077 0.215316,0.48629 0.21556,0.59004 2.03e-4,0.10375 0.09701,0.34713 0.215112,0.54084 0.199338,0.32692 0.214747,0.5432 0.214747,3.01355 0,2.45583 -0.01667,2.69234 -0.215153,3.06275 -0.11831,0.22077 -0.215113,0.52277 -0.215113,0.6711 0,0.14834 -0.0968,0.45034 -0.215153,0.67111 -0.11831,0.22077 -0.215153,0.48558 -0.215153,0.58847 0,0.10288 -0.165756,0.51506 -0.368346,0.91594 -0.580735,1.1491 -0.654933,2.05647 -0.214503,2.62304 0.186328,0.2397 0.582849,1.05835 0.582849,1.20336 0,0.073 0.09684,0.31338 0.215153,0.53415 0.118351,0.22077 0.215153,0.49857 0.215153,0.61733 0,0.11875 0.0968,0.39655 0.215113,0.61732 0.156039,0.29108 0.215519,0.60879 0.216454,1.15598 0,0.41503 0.07273,1.02082 0.160064,1.34622 0.08733,0.3254 0.158803,0.95468 0.158803,1.39841 0,0.44372 -0.07147,1.07301 -0.158803,1.39841 -0.08733,0.3254 -0.158682,0.88207 -0.158519,1.23705 2.85e-4,0.651 -0.286912,1.77839 -0.660665,2.59346 -0.11152,0.24313 -0.202753,0.51891 -0.202753,0.61283 0,0.17802 -0.473727,1.12852 -0.651029,1.30626 -0.05607,0.0562 -0.101926,0.18498 -0.101926,0.28616 0,0.10118 -0.193646,0.42892 -0.430306,0.72831 -0.236661,0.29939 -0.430266,0.5732 -0.430266,0.60847 0,0.0353 -0.133109,0.24238 -0.295815,0.46024 -0.162707,0.21786 -0.344237,0.46117 -0.403392,0.54069 -0.509098,0.68423 -2.972789,2.97293 -3.489531,3.24169 -0.173155,0.0901 -0.543941,0.29795 -0.82402196,0.462 -0.280041,0.16405 -0.616878,0.3253 -0.748523,0.35834 -0.255932,0.0642 -1.17460204,0.51122 -1.37739504,0.67017 -0.06725,0.0527 -0.364321,0.12312 -0.660137,0.15646 -0.295815,0.0333 -0.683066,0.13651 -0.860572,0.22926 -0.177465,0.0928 -0.481574,0.16895 -0.675748,0.16931 -0.194175,3.6e-4 -0.533045,0.0798 -0.752996,0.17655 -0.450187,0.19799 -3.185665,0.30571 -3.949719,0.15554 z m 3.334671,-6.58114 c 0.236619,-0.0622 0.653103,-0.16997 0.925459,-0.23947 0.272357,-0.0695 0.563049,-0.18298 0.646029,-0.25218 0.08294,-0.0692 0.295774,-0.16041 0.472914,-0.20269 0.17718,-0.0423 0.394732,-0.13734 0.483485,-0.21124 0.08871,-0.0739 0.427582,-0.28426 0.752955,-0.46747 0.325413,-0.18322 0.82406204,-0.58822 1.10816904,-0.90001 1.140775,-1.25206 1.36597,-1.53295 1.36597,-1.70399 0,-0.0982 0.08595,-0.29394 0.190963,-0.43504 0.37586796,-0.50488 0.66964996,-1.25563 0.67322796,-1.72051 0,-0.25975 0.09717,-0.6659 0.211494,-0.90256 0.293091,-0.60677 0.293091,-2.04464 0,-2.87853 -0.11831,-0.33667 -0.215153,-0.81375 -0.215153,-1.06019 0,-0.38943 -0.236376,-1.07438 -0.552601,-1.60113 -0.05326,-0.0887 -0.15660796,-0.28237 -0.22966696,-0.43027 -0.272804,-0.5523 -0.578662,-0.93585 -1.372598,-1.72112 -0.94180304,-0.93159 -1.20976904,-1.12924 -2.09412504,-1.54465 -0.35497,-0.16676 -0.742222,-0.35614 -0.860572,-0.42086 -0.11831,-0.0647 -0.408759,-0.15298 -0.645419,-0.19611 -0.23666,-0.0431 -0.648102,-0.1604 -0.91432,-0.26058 -0.901187,-0.33909 -3.80543,-0.0306 -4.456907,0.47347 -0.06314,0.0489 -0.273901,0.14235 -0.46832,0.20777 -0.9142379,0.30761 -3.1200869,2.11675 -3.3485349,2.74633 -0.02439,0.0677 -0.196817,0.34111 -0.382779,0.60764 -0.327568,0.46942 -0.530036,0.86254 -1.025108,1.99058 -0.215763,0.49162 -0.236945,0.72275 -0.246662,2.68924 -0.0089,1.81519 0.01667,2.19343 0.164049,2.42032 0.09603,0.14791 0.207469,0.44873 0.247596,0.66848 0.04025,0.21976 0.140549,0.45562 0.223122,0.52413 0.08253,0.0685 0.150103,0.18543 0.150103,0.25981 0,0.0744 0.217837,0.41577 0.484054,0.75862 0.266258,0.34286 0.484054,0.66017 0.484054,0.70514 0,0.045 0.257517,0.33904 0.572197,0.6535 0.698598,0.69808 1.9848,1.57513 2.525123,1.7219 0.2192999,0.0596 0.4751499,0.17609 0.5685379,0.25896 0.09339,0.0829 0.262843,0.15194 0.376477,0.15349 0.113675,0.002 0.545526,0.0955 0.959692,0.20867 0.848091,0.23184 2.528416,0.2842 3.227095,0.10055 z M -39.481766,705.4445 c 0.23569,-0.0839 0.67059,-0.15504 0.9664,-0.15803 0.3492,-0.004 0.65099,-0.0804 0.86053,-0.21915 0.17751,-0.11755 0.3877,-0.21404 0.4671,-0.21443 0.0794,-3.9e-4 0.26748,-0.0975 0.41791,-0.21585 0.15043,-0.11833 0.36143,-0.21514 0.46889,-0.21514 0.10749,0 0.74596,-0.54457 1.41882,-1.21016 1.14232,-1.12999 1.799,-2.01947 1.799,-2.43683 0,-0.0977 0.0847,-0.29734 0.18824,-0.44362 0.3838,-0.54223 0.49747,-1.26935 0.4956,-3.17035 0,-1.8852 -0.17205,-3.02836 -0.52609,-3.53381 -0.0868,-0.12387 -0.15787,-0.32337 -0.15803,-0.44332 0,-0.41863 -1.03389,-1.82274 -2.00297,-2.72167 -1.04365,-0.9681 -1.92199,-1.47044 -3.34297,-1.91185 -0.69502,-0.2159 -1.0606,-0.2601 -2.12986,-0.25753 -0.83878,0.002 -1.44155,0.0569 -1.72115,0.15677 -0.23661,0.0845 -0.6481,0.18512 -0.91431,0.22357 -0.26626,0.0385 -0.55667,0.13089 -0.64542,0.20539 -0.0887,0.0745 -0.28236,0.17113 -0.43031,0.21471 -0.14791,0.0436 -0.34151,0.14028 -0.43027,0.21489 -0.0887,0.0746 -0.3124,0.2121 -0.49698,0.30553 -0.59919,0.30326 -1.42037,1.16494 -2.6771,2.80923 -0.0883,0.11557 -0.16059,0.27754 -0.16059,0.35993 0,0.0824 -0.17876,0.5203 -0.39725,0.97314 l -0.39729,0.82334 -0.0449,2.28104 c -0.0424,2.15153 -0.0321,2.30766 0.18214,2.7501 0.1249,0.25798 0.22706,0.54406 0.22706,0.63573 0,0.0917 0.0968,0.28975 0.21516,0.44018 0.11831,0.15042 0.21511,0.36725 0.21511,0.48184 0,0.11458 0.12485,0.34898 0.27744,0.52088 0.15258,0.1719 0.38867,0.48368 0.52462,0.69284 0.45641,0.70215 1.8978,2.04003 2.19788,2.04003 0.0573,0 0.1682,0.0612 0.24638,0.13602 0.29452,0.28184 1.30531,0.72454 1.65427,0.72454 0.19958,0 0.57024,0.069 0.82373,0.15328 0.25354,0.0843 0.58196,0.17703 0.72987,0.20606 0.42453,0.0833 1.62926,-0.0299 2.09937,-0.1973 z m 34.6366589,-35.64377 c 0.473808,-0.0572 1.030474,-0.188 1.237049,-0.29059 0.206575,-0.10259 0.554593,-0.27647 0.773405,-0.3864 0.218772,-0.10993 0.446284,-0.19988 0.505561,-0.19988 0.335903,0 1.85791204,-1.30741 2.25406704,-1.93626 0.09318,-0.14791 0.328503,-0.46753 0.522922,-0.71028 0.194418,-0.24275 0.353506,-0.50239 0.353506,-0.57699 0,-0.0746 0.08981,-0.31164 0.19962296,-0.52677 0.444089,-0.87014 0.660909,-1.43417 0.660909,-1.71911 0,-0.16517 0.077,-0.55958 0.171122,-0.87646 0.283496,-0.95466 0.0041,-3.81024 -0.434657,-4.4361 -0.09172,-0.13091 -0.166731,-0.32658 -0.166731,-0.43481 0,-0.22461 -0.39802496,-0.98823 -0.65932296,-1.26491 -0.0964,-0.10207 -0.367899,-0.44555 -0.603381,-0.7633 -0.589638,-0.79571 -1.24001704,-1.44604 -1.66296504,-1.66277 -0.195353,-0.10012 -0.379404,-0.21873 -0.409002,-0.26358 -0.09123,-0.13835 -1.097476,-0.64142 -1.28291,-0.64142 -0.09635,0 -0.27069,-0.0665 -0.387373,-0.14777 -0.24719,-0.17216 -1.799082,-0.43052 -2.578708,-0.42932 -0.975019,0.002 -2.873059,0.25789 -3.103336,0.4192 -0.124002,0.0868 -0.299353,0.1587 -0.389732,0.15969 -0.3762739,0.004 -1.9058449,0.94797 -2.6542869,1.63786 -0.596103,0.54945 -1.501763,1.89198 -1.6515,2.44816 -0.06237,0.23156 -0.160471,0.45013 -0.21804,0.4857 -0.05753,0.0356 -0.104649,0.17145 -0.104649,0.30195 0,0.1305 -0.10217,0.42797 -0.227107,0.66102 -0.205517,0.38349 -0.228203,0.60816 -0.238774,2.36495 -0.01057,1.79545 0.0061,1.97912 0.227106,2.44625 0.13132,0.27778 0.238775,0.58924 0.238775,0.69213 0,0.1642 0.312484,0.94353 0.518571,1.29338 0.72047,1.22298 1.892917,2.49677 2.927295,3.18032 1.2203799,0.80649 1.7940809,1.03696 2.8836699,1.15845 0.564635,0.063 1.053649,0.14202 1.086621,0.17568 0.06367,0.065 0.803125,0.0122 2.212273,-0.15802 z"
       id="path1-4-7"
       inkscape:export-filename="AION-una-sola-tinta.svg"
       inkscape:export-xdpi="96"
       inkscape:export-ydpi="96"
       sodipodi:nodetypes="cssscssssssssssscscssssssssssssssssssssscssssssssssssssssssssssssssssssssssssssscssssssscssssssssssssssssscssssssssssssssssssssssssssssscssssssssssssssssssssssssssssssssssssssssssssssssssssssssssssssssscscssscscscsssssssssssssssssscssssssssssssssssssssssssscssssssssssssssssssssccssssssssscsssssssssssscsssssssssssscssscssssssscscsssssssssssscsssssssssssssssssssssssssssssssscssssssscsssssss" /></g></svg>
